<?xml version="1.0" encoding="utf-8"?>
<!-- Generator: Adobe Illustrator 24.1.2, SVG Export Plug-In . SVG Version: 6.00 Build 0)  -->
<svg version="1.1" id="Layer_1" xmlns="http://www.w3.org/2000/svg" xmlns:xlink="http://www.w3.org/1999/xlink" x="0px" y="0px"
	 viewBox="0 0 720 576" style="enable-background:new 0 0 720 576;" xml:space="preserve">
<style type="text/css">
	.st0{fill:#FFFFFF;}
	.st1{clip-path:url(#SVGID_4_);}
	.st2{fill:#B7D4BE;}
	.st3{fill:#CBCCAC;}
	.st4{fill:#D9C5A7;}
	.st5{fill:#E7BBAE;}
	.st6{fill:#C4CFB1;}
	.st7{fill:#D2C9A9;}
	.st8{fill:#BDD2B7;}
	.st9{fill:#DEC2A8;}
	.st10{fill:#E3BEAA;}
	.st11{fill:#E8B6BA;}
	.st12{fill:#E8B8B3;}
	.st13{fill:none;stroke:#9A32CD;stroke-width:1.6;stroke-linejoin:round;stroke-miterlimit:10;stroke-dasharray:8.54,8.54;}
	.st14{clip-path:url(#SVGID_6_);}
	.st15{fill:#4D4D4D;}
	.st16{font-family:'ArialMT';}
	.st17{font-size:12px;}
	.st18{fill:none;}
	.st19{font-size:14px;}
</style>
<rect class="st0" width="720" height="576"/>
<g>
	<defs>
		<rect id="SVGID_1_" width="720" height="576"/>
	</defs>
	<clipPath id="SVGID_2_">
		<use xlink:href="#SVGID_1_"  style="overflow:visible;"/>
	</clipPath>
</g>
<g>
	<defs>
		<rect id="SVGID_3_" x="97.5" y="28.4" width="594.2" height="397.4"/>
	</defs>
	<clipPath id="SVGID_4_">
		<use xlink:href="#SVGID_3_"  style="overflow:visible;"/>
	</clipPath>
	<g class="st1">
		<rect x="105.4" y="316.4" class="st2" width="47.7" height="91.3"/>
		<rect x="264.6" y="294.4" class="st3" width="47.8" height="113.3"/>
		<rect x="370.7" y="307.6" class="st4" width="47.8" height="100.1"/>
		<rect x="529.8" y="275.5" class="st5" width="47.8" height="132.2"/>
		<rect x="211.5" y="308.3" class="st6" width="47.7" height="99.4"/>
		<rect x="317.6" y="314.6" class="st7" width="47.8" height="93.1"/>
		<rect x="158.5" y="56.2" class="st8" width="47.8" height="351.5"/>
		<rect x="423.7" y="360.9" class="st9" width="47.8" height="46.8"/>
		<rect x="476.8" y="392.3" class="st10" width="47.8" height="15.4"/>
		<rect x="636" y="354.9" class="st11" width="47.8" height="52.8"/>
		<rect x="582.9" y="351.5" class="st12" width="47.8" height="56.1"/>
		<line class="st13" x1="97.5" y1="303" x2="691.7" y2="303"/>
	</g>
</g>
<g>
	<defs>
		<rect id="SVGID_5_" width="720" height="576"/>
	</defs>
	<clipPath id="SVGID_6_">
		<use xlink:href="#SVGID_5_"  style="overflow:visible;"/>
	</clipPath>
	<g class="st14">
		<text transform="matrix(1 0 0 1 85.8762 411.99)" class="st15 st16 st17">0</text>
		<rect x="65.9" y="315.7" class="st18" width="26.7" height="14.2"/>
		<text transform="matrix(1 0 0 1 65.8545 325.9702)" class="st15 st16 st17">5000</text>
		<rect x="59.2" y="229.7" class="st18" width="33.4" height="14.2"/>
		<text transform="matrix(1 0 0 1 59.1807 239.9502)" class="st15 st16 st17">10000</text>
		<rect x="59.2" y="143.6" class="st18" width="33.4" height="14.2"/>
		<text transform="matrix(1 0 0 1 59.1807 153.9302)" class="st15 st16 st17">15000</text>
		<rect x="59.2" y="57.6" class="st18" width="33.4" height="14.2"/>
		<text transform="matrix(1 0 0 1 59.1807 67.9102)" class="st15 st16 st17">20000</text>
		
			<rect x="48.3" y="462.6" transform="matrix(0.7071 -0.7071 0.7071 0.7071 -303.377 206.8217)" class="st18" width="99.4" height="14.2"/>
		<text transform="matrix(0.7071 -0.7071 0.7071 0.7071 65.1039 507.0549)" class="st15 st16 st17">Breaking leaf buds</text>
		
			<rect x="153.1" y="441.1" transform="matrix(0.7072 -0.707 0.707 0.7072 -266.3553 253.1639)" class="st18" width="38.7" height="14.2"/>
		<text transform="matrix(0.7071 -0.7071 0.7071 0.7071 161.0768 464.1317)" class="st15 st16 st17">Leaves</text>
		
			<rect x="151.6" y="463.7" transform="matrix(0.7072 -0.707 0.707 0.7072 -273.4724 281.3397)" class="st18" width="102.7" height="14.2"/>
		<text transform="matrix(0.7071 -0.7071 0.7071 0.7071 168.8546 509.4048)" class="st15 st16 st17">Increasing leaf size</text>
		
			<rect x="224" y="455.7" transform="matrix(0.7072 -0.707 0.707 0.7072 -249.9223 322.1678)" class="st18" width="80.1" height="14.2"/>
		<text transform="matrix(0.7071 -0.7071 0.7071 0.7071 237.9391 493.3713)" class="st15 st16 st17">Colored leaves</text>
		
			<rect x="282.7" y="453.3" transform="matrix(0.7071 -0.7071 0.7071 0.7071 -232.0325 360.6706)" class="st18" width="73.4" height="14.2"/>
		<text transform="matrix(0.7071 -0.7071 0.7071 0.7071 295.7084 488.6515)" class="st15 st16 st17">Falling leaves</text>
		
			<rect x="295.3" y="470.1" transform="matrix(0.7071 -0.7071 0.7071 0.7071 -233.2329 391.2573)" class="st18" width="120.7" height="14.2"/>
		<text transform="matrix(0.7071 -0.7071 0.7071 0.7071 315.2854 522.1241)" class="st15 st16 st17">Flowers or flower buds</text>
		
			<rect x="391.1" y="452.4" transform="matrix(0.7072 -0.7071 0.7071 0.7072 -200.0131 436.0791)" class="st18" width="70.7" height="14.2"/>
		<text transform="matrix(0.7071 -0.7071 0.7071 0.7071 403.7076 486.7625)" class="st15 st16 st17">Open flowers</text>
		
			<rect x="439.6" y="454.3" transform="matrix(0.7071 -0.7071 0.7071 0.7071 -186.3692 472.8481)" class="st18" width="76" height="14.2"/>
		<text transform="matrix(0.7071 -0.7071 0.7071 0.7071 452.9751 490.5446)" class="st15 st16 st17">Pollen release</text>
		
			<rect x="531.9" y="438" transform="matrix(0.7071 -0.7071 0.7071 0.7071 -154.5505 517.1087)" class="st18" width="30" height="14.2"/>
		<text transform="matrix(0.7071 -0.7071 0.7071 0.7071 538.5867 457.9833)" class="st15 st16 st17">Fruits</text>
		
			<rect x="564.5" y="446.5" transform="matrix(0.7071 -0.7071 0.7071 0.7071 -147.506 551.0874)" class="st18" width="54" height="14.2"/>
		<text transform="matrix(0.7071 -0.7071 0.7071 0.7071 574.6527 474.9662)" class="st15 st16 st17">Ripe fruits</text>
		
			<rect x="550.9" y="474.1" transform="matrix(0.7071 -0.7071 0.7071 0.7071 -159.5644 577.1588)" class="st18" width="132.1" height="14.2"/>
		<text transform="matrix(0.7071 -0.7071 0.7071 0.7071 572.5121 530.1578)" class="st15 st16 st17">Recent fruit or seed drop</text>
		<text transform="matrix(1 0 0 1 355.2565 544.71)" class="st16 st19">Phenophase</text>
		<text transform="matrix(6.123234e-17 -1 1 6.123234e-17 38.37 301.3633)" class="st16 st19">Number of observations</text>
	</g>
</g>
<image style="overflow:visible;" width="2645" height="1253" xlink:href="43DB2E1F.jpg"  transform="matrix(0.3209 0 0 0.2084 -105.9532 637.7174)">
</image>
<image style="overflow:visible;" width="2445" height="1257" xlink:href="43DB2E1D.jpg"  transform="matrix(0.374 0 0 0.3523 -109.3014 598.6556)">
</image>
</svg>
