<?xml version="1.0" encoding="utf-8"?>
<!-- Generator: Adobe Illustrator 24.1.2, SVG Export Plug-In . SVG Version: 6.00 Build 0)  -->
<svg version="1.1" id="Layer_1" xmlns="http://www.w3.org/2000/svg" xmlns:xlink="http://www.w3.org/1999/xlink" x="0px" y="0px"
	 viewBox="0 0 720 801.4" style="enable-background:new 0 0 720 801.4;" xml:space="preserve">
<style type="text/css">
	.st0{fill:#FFFFFF;}
	.st1{clip-path:url(#SVGID_36_);}
	.st2{fill:#FFFFFF;stroke:#FFFFFF;stroke-width:1.07;stroke-linecap:round;stroke-linejoin:round;stroke-miterlimit:10;}
	.st3{clip-path:url(#SVGID_38_);}
	.st4{fill:none;stroke:#F8766D;stroke-width:1.07;stroke-linejoin:round;stroke-miterlimit:10;stroke-opacity:0.5;}
	.st5{fill:none;stroke:#A3A500;stroke-width:1.07;stroke-linejoin:round;stroke-miterlimit:10;stroke-opacity:0.5;}
	.st6{fill:none;stroke:#00BF7D;stroke-width:1.07;stroke-linejoin:round;stroke-miterlimit:10;stroke-opacity:0.5;}
	.st7{fill:none;stroke:#00B0F6;stroke-width:1.07;stroke-linejoin:round;stroke-miterlimit:10;stroke-opacity:0.5;}
	.st8{fill:none;stroke:#E76BF3;stroke-width:1.07;stroke-linejoin:round;stroke-miterlimit:10;stroke-opacity:0.5;}
	.st9{fill:none;stroke:#F8766D;stroke-width:1.07;stroke-linejoin:round;stroke-miterlimit:10;}
	.st10{fill:none;stroke:#A3A500;stroke-width:1.07;stroke-linejoin:round;stroke-miterlimit:10;}
	.st11{fill:none;stroke:#00BF7D;stroke-width:1.07;stroke-linejoin:round;stroke-miterlimit:10;}
	.st12{fill:none;stroke:#00B0F6;stroke-width:1.07;stroke-linejoin:round;stroke-miterlimit:10;}
	.st13{fill:none;stroke:#E76BF3;stroke-width:1.07;stroke-linejoin:round;stroke-miterlimit:10;}
	.st14{opacity:0.2;fill:#094D79;}
	.st15{clip-path:url(#SVGID_40_);}
	.st16{clip-path:url(#SVGID_44_);}
	.st17{fill:none;stroke:#000000;stroke-width:1.07;stroke-linejoin:round;stroke-miterlimit:10;}
	.st18{fill:none;stroke:#333333;stroke-width:1.07;stroke-linejoin:round;stroke-miterlimit:10;}
	.st19{clip-path:url(#SVGID_46_);}
	.st20{clip-path:url(#SVGID_50_);}
	.st21{fill:none;}
	.st22{fill:#4D4D4D;}
	.st23{font-family:'ArialMT';}
	.st24{font-size:8.8px;}
	.st25{enable-background:new    ;}
	.st26{font-size:11px;}
	.st27{letter-spacing:1;}
	.st28{clip-path:url(#SVGID_51_);}
	.st29{clip-path:url(#SVGID_53_);}
	.st30{clip-path:url(#SVGID_56_);}
	.st31{clip-path:url(#SVGID_59_);}
	.st32{clip-path:url(#SVGID_61_);}
	.st33{clip-path:url(#SVGID_63_);}
	.st34{clip-path:url(#SVGID_66_);}
	.st35{opacity:0.3;fill:#AED82B;}
	.st36{clip-path:url(#SVGID_70_);}
	.st37{clip-path:url(#SVGID_74_);}
	.st38{clip-path:url(#SVGID_78_);}
	.st39{clip-path:url(#SVGID_81_);}
	.st40{clip-path:url(#SVGID_83_);}
	.st41{clip-path:url(#SVGID_85_);}
	.st42{clip-path:url(#SVGID_88_);}
	.st43{clip-path:url(#SVGID_91_);}
	.st44{clip-path:url(#SVGID_93_);}
	.st45{opacity:0.3;fill:#23773C;}
	.st46{clip-path:url(#SVGID_95_);}
	.st47{clip-path:url(#SVGID_97_);}
	.st48{opacity:0.3;fill:#DD8E5E;}
	.st49{opacity:0.3;fill:#3D1806;}
	.st50{clip-path:url(#SVGID_99_);}
	.st51{clip-path:url(#SVGID_101_);}
	.st52{clip-path:url(#SVGID_103_);}
	.st53{clip-path:url(#SVGID_105_);}
	.st54{clip-path:url(#SVGID_107_);}
</style>
<rect y="-820.7" class="st0" width="720" height="720"/>
<g>
	<defs>
		<rect id="SVGID_35_" y="-820.7" width="720" height="720"/>
	</defs>
	<clipPath id="SVGID_36_">
		<use xlink:href="#SVGID_35_"  style="overflow:visible;"/>
	</clipPath>
	<g class="st1">
		<rect y="-820.7" class="st2" width="720" height="720"/>
	</g>
</g>
<g>
	<defs>
		<rect id="SVGID_37_" x="54.8" y="-815.3" width="556.3" height="671.1"/>
	</defs>
	<clipPath id="SVGID_38_">
		<use xlink:href="#SVGID_37_"  style="overflow:visible;"/>
	</clipPath>
	<g class="st3">
		<rect x="54.8" y="-815.3" class="st0" width="556.3" height="671.1"/>
		<polyline class="st4" points="126.3,-174.6 109,-327.2 134.4,-479.7 123.2,-632.2 123.9,-784.8 		"/>
		<polyline class="st5" points="522.1,-174.6 519.7,-327.2 523.9,-479.7 508.7,-632.2 503.5,-784.8 		"/>
		<polyline class="st6" points="151.3,-174.6 139.9,-327.2 207.9,-479.7 172.6,-632.2 178.3,-784.8 		"/>
		<polyline class="st7" points="337.5,-174.6 348.3,-327.2 373,-479.7 323.1,-632.2 318,-784.8 		"/>
		<polyline class="st8" points="319,-174.6 317.1,-327.2 363.8,-479.7 280.2,-632.2 294.8,-784.8 		"/>
		<line class="st9" x1="101.1" y1="-174.6" x2="167.9" y2="-174.6"/>
		<line class="st10" x1="407.5" y1="-174.6" x2="585.8" y2="-174.6"/>
		<line class="st11" x1="117.7" y1="-174.6" x2="194.9" y2="-174.6"/>
		<line class="st12" x1="249.1" y1="-174.6" x2="416.1" y2="-174.6"/>
		<line class="st13" x1="144.3" y1="-174.6" x2="582.5" y2="-174.6"/>
		<line class="st9" x1="80.1" y1="-327.2" x2="152.2" y2="-327.2"/>
		<line class="st10" x1="453.2" y1="-327.2" x2="582.8" y2="-327.2"/>
		<line class="st11" x1="103.3" y1="-327.2" x2="220.9" y2="-327.2"/>
		<line class="st12" x1="235.3" y1="-327.2" x2="461" y2="-327.2"/>
		<line class="st13" x1="114.1" y1="-327.2" x2="579.1" y2="-327.2"/>
		<line class="st9" x1="121.1" y1="-479.7" x2="156.3" y2="-479.7"/>
		<line class="st10" x1="479.8" y1="-479.7" x2="565.2" y2="-479.7"/>
		<line class="st11" x1="173.1" y1="-479.7" x2="266.3" y2="-479.7"/>
		<rect x="173.1" y="-470.7" class="st14" width="93.2" height="22.1"/>
		<line class="st12" x1="267.3" y1="-479.7" x2="473.9" y2="-479.7"/>
		<line class="st13" x1="219.6" y1="-479.7" x2="556.8" y2="-479.7"/>
		<line class="st9" x1="89.5" y1="-632.2" x2="171.9" y2="-632.2"/>
		<line class="st10" x1="430.8" y1="-632.2" x2="570.8" y2="-632.2"/>
		<line class="st11" x1="128" y1="-632.2" x2="238.9" y2="-632.2"/>
		<line class="st12" x1="202.8" y1="-632.2" x2="426.8" y2="-632.2"/>
		<line class="st13" x1="114.3" y1="-632.2" x2="535.6" y2="-632.2"/>
		<line class="st9" x1="92.9" y1="-784.8" x2="158" y2="-784.8"/>
		<line class="st10" x1="434.7" y1="-784.8" x2="560.9" y2="-784.8"/>
		<line class="st11" x1="123.7" y1="-784.8" x2="236.1" y2="-784.8"/>
		<line class="st12" x1="241.6" y1="-784.8" x2="397.2" y2="-784.8"/>
		<line class="st13" x1="132.7" y1="-784.8" x2="543.8" y2="-784.8"/>
		<g>
			<defs>
				<rect id="SVGID_39_" x="826.6" y="-467.9" width="85.2" height="101"/>
			</defs>
			<clipPath id="SVGID_40_">
				<use xlink:href="#SVGID_39_"  style="overflow:visible;"/>
			</clipPath>
			<g class="st15">
				<defs>
					<rect id="SVGID_41_" x="826.1" y="-468.3" width="86.1" height="101.4"/>
				</defs>
				<clipPath id="SVGID_42_">
					<use xlink:href="#SVGID_41_"  style="overflow:visible;"/>
				</clipPath>
				<g style="clip-path:url(#SVGID_42_);">
					
						<image style="overflow:visible;" width="1081" height="1157" xlink:href="C0C18A6F.png"  transform="matrix(7.966635e-02 0 0 8.764910e-02 826.1028 -468.2961)">
					</image>
				</g>
			</g>
		</g>
	</g>
</g>
<g>
	<defs>
		<rect id="SVGID_43_" y="-820.7" width="720" height="720"/>
	</defs>
	<clipPath id="SVGID_44_">
		<use xlink:href="#SVGID_43_"  style="overflow:visible;"/>
	</clipPath>
	<g class="st16">
		<line class="st17" x1="54.8" y1="-144.1" x2="54.8" y2="-815.3"/>
		<rect x="30.3" y="-179" class="st21" width="19.6" height="10.4"/>
		<text transform="matrix(1 0 0 1 30.3032 -171.4757)" class="st22 st23 st24">2016</text>
		<rect x="30.3" y="-331.6" class="st21" width="19.6" height="10.4"/>
		<text transform="matrix(1 0 0 1 30.3032 -324.0157)" class="st22 st23 st24">2017</text>
		<rect x="30.3" y="-484.1" class="st21" width="19.6" height="10.4"/>
		<text transform="matrix(1 0 0 1 30.3032 -476.546)" class="st22 st23 st24">2018</text>
		<rect x="30.3" y="-636.6" class="st21" width="19.6" height="10.4"/>
		<text transform="matrix(1 0 0 1 30.3032 -629.0763)" class="st22 st23 st24">2019</text>
		<rect x="30.3" y="-789.2" class="st21" width="19.6" height="10.4"/>
		<text transform="matrix(1 0 0 1 30.3032 -781.6061)" class="st22 st23 st24">2020</text>
		<line class="st18" x1="52.1" y1="-174.6" x2="54.8" y2="-174.6"/>
		<line class="st18" x1="52.1" y1="-327.2" x2="54.8" y2="-327.2"/>
		<line class="st18" x1="52.1" y1="-479.7" x2="54.8" y2="-479.7"/>
		<line class="st18" x1="52.1" y1="-632.2" x2="54.8" y2="-632.2"/>
		<line class="st18" x1="52.1" y1="-784.8" x2="54.8" y2="-784.8"/>
		<line class="st17" x1="54.8" y1="-144.1" x2="611.1" y2="-144.1"/>
		<line class="st18" x1="80.6" y1="-141.4" x2="80.6" y2="-144.1"/>
		<line class="st18" x1="116.9" y1="-141.4" x2="116.9" y2="-144.1"/>
		<line class="st18" x1="153.2" y1="-141.4" x2="153.2" y2="-144.1"/>
		<line class="st18" x1="189.5" y1="-141.4" x2="189.5" y2="-144.1"/>
		<line class="st18" x1="225.8" y1="-141.4" x2="225.8" y2="-144.1"/>
		<line class="st18" x1="262.1" y1="-141.4" x2="262.1" y2="-144.1"/>
		<line class="st18" x1="298.4" y1="-141.4" x2="298.4" y2="-144.1"/>
		<line class="st18" x1="334.7" y1="-141.4" x2="334.7" y2="-144.1"/>
		<line class="st18" x1="371" y1="-141.4" x2="371" y2="-144.1"/>
		<line class="st18" x1="407.3" y1="-141.4" x2="407.3" y2="-144.1"/>
		<line class="st18" x1="443.5" y1="-141.4" x2="443.5" y2="-144.1"/>
		<line class="st18" x1="479.8" y1="-141.4" x2="479.8" y2="-144.1"/>
		<line class="st18" x1="516.1" y1="-141.4" x2="516.1" y2="-144.1"/>
		<line class="st18" x1="552.4" y1="-141.4" x2="552.4" y2="-144.1"/>
		<line class="st18" x1="588.7" y1="-141.4" x2="588.7" y2="-144.1"/>
		<rect x="73.3" y="-140.4" class="st21" width="14.7" height="10.4"/>
		<text transform="matrix(1 0 0 1 73.2788 -132.8859)" class="st22 st23 st24">105</text>
		<rect x="109.6" y="-140.4" class="st21" width="14.7" height="10.4"/>
		<text transform="matrix(1 0 0 1 109.5688 -132.8859)" class="st22 st23 st24">120</text>
		<rect x="145.9" y="-140.4" class="st21" width="14.7" height="10.4"/>
		<text transform="matrix(1 0 0 1 145.8589 -132.8859)" class="st22 st23 st24">135</text>
		<rect x="182.2" y="-140.4" class="st21" width="14.7" height="10.4"/>
		<text transform="matrix(1 0 0 1 182.1587 -132.8859)" class="st22 st23 st24">150</text>
		<rect x="218.4" y="-140.4" class="st21" width="14.7" height="10.4"/>
		<text transform="matrix(1 0 0 1 218.4487 -132.8859)" class="st22 st23 st24">165</text>
		<rect x="254.7" y="-140.4" class="st21" width="14.7" height="10.4"/>
		<text transform="matrix(1 0 0 1 254.7388 -132.8859)" class="st22 st23 st24">180</text>
		<rect x="291" y="-140.4" class="st21" width="14.7" height="10.4"/>
		<text transform="matrix(1 0 0 1 291.0386 -132.8859)" class="st22 st23 st24">195</text>
		<rect x="327.3" y="-140.4" class="st21" width="14.7" height="10.4"/>
		<text transform="matrix(1 0 0 1 327.3286 -132.8859)" class="st22 st23 st24">210</text>
		<rect x="363.6" y="-140.4" class="st21" width="14.7" height="10.4"/>
		<text transform="matrix(1 0 0 1 363.6187 -132.8859)" class="st22 st23 st24">225</text>
		<rect x="399.9" y="-140.4" class="st21" width="14.7" height="10.4"/>
		<text transform="matrix(1 0 0 1 399.9189 -132.8859)" class="st22 st23 st24">240</text>
		<rect x="436.2" y="-140.4" class="st21" width="14.7" height="10.4"/>
		<text transform="matrix(1 0 0 1 436.209 -132.8859)" class="st22 st23 st24">255</text>
		<rect x="472.5" y="-140.4" class="st21" width="14.7" height="10.4"/>
		<text transform="matrix(1 0 0 1 472.499 -132.8859)" class="st22 st23 st24">270</text>
		<rect x="508.8" y="-140.4" class="st21" width="14.7" height="10.4"/>
		<text transform="matrix(1 0 0 1 508.7988 -132.8859)" class="st22 st23 st24">285</text>
		<rect x="545.1" y="-140.4" class="st21" width="14.7" height="10.4"/>
		<text transform="matrix(1 0 0 1 545.0889 -132.8859)" class="st22 st23 st24">300</text>
		<rect x="581.4" y="-140.4" class="st21" width="14.7" height="10.4"/>
		<text transform="matrix(1 0 0 1 581.3789 -132.8859)" class="st22 st23 st24">315</text>
		<rect x="304.9" y="-129.9" class="st21" width="59.3" height="13"/>
		<text transform="matrix(1 0 0 1 304.8569 -120.4259)" class="st25"><tspan x="0" y="0" class="st23 st26">Day</tspan><tspan x="19.6" y="0" class="st23 st26 st27"> </tspan><tspan x="24.2" y="0" class="st23 st26">of</tspan><tspan x="33.3" y="0" class="st23 st26 st27"> </tspan><tspan x="37.9" y="0" class="st23 st26">year</tspan></text>
		<rect x="14.7" y="-491" class="st21" width="14.6" height="22.4"/>
		<text transform="matrix(6.123234e-17 -1 1 6.123234e-17 24.0967 -468.5836)" class="st25"><tspan x="0" y="0" class="st23 st26 st27">Ye</tspan><tspan x="16.3" y="0" class="st23 st26">a</tspan></text>
		<rect x="622.1" y="-536.2" class="st0" width="92.4" height="113"/>
		<rect x="627.6" y="-531.1" class="st21" width="30" height="13"/>
		<text transform="matrix(1 0 0 1 627.5801 -521.6964)" class="st23 st26">phase</text>
		<line class="st4" x1="629.3" y1="-506.4" x2="643.1" y2="-506.4"/>
		<line class="st9" x1="636.2" y1="-499.5" x2="636.2" y2="-513.3"/>
		<line class="st5" x1="629.3" y1="-489.1" x2="643.1" y2="-489.1"/>
		<line class="st10" x1="636.2" y1="-482.2" x2="636.2" y2="-496"/>
		<line class="st6" x1="629.3" y1="-471.9" x2="643.1" y2="-471.9"/>
		<line class="st11" x1="636.2" y1="-464.9" x2="636.2" y2="-478.8"/>
		<line class="st7" x1="629.3" y1="-454.6" x2="643.1" y2="-454.6"/>
		<line class="st12" x1="636.2" y1="-447.7" x2="636.2" y2="-461.5"/>
		<line class="st8" x1="629.3" y1="-437.3" x2="643.1" y2="-437.3"/>
		<line class="st13" x1="636.2" y1="-430.4" x2="636.2" y2="-444.2"/>
		<rect x="650.3" y="-510.8" class="st21" width="34.3" height="10.4"/>
		<text transform="matrix(1 0 0 1 650.3398 -503.2662)" class="st23 st24">budburst</text>
		<rect x="650.3" y="-493.5" class="st21" width="58.7" height="10.4"/>
		<text transform="matrix(1 0 0 1 650.3398 -485.9865)" class="st23 st24">Colored leaves</text>
		<text transform="matrix(1 0 0 1 650.34 -468.7062)" class="st23 st24">flowers</text>
		<rect x="650.3" y="-459" class="st21" width="22" height="10.4"/>
		<text transform="matrix(1 0 0 1 650.34 -451.4262)" class="st23 st24">Fruits</text>
		<rect x="650.3" y="-441.7" class="st21" width="26.4" height="10.4"/>
		<text transform="matrix(1 0 0 1 650.3398 -434.1461)" class="st23 st24">leafout</text>
	</g>
</g>
<rect x="-937.1" y="-217.4" class="st0" width="720" height="720"/>
<g>
	<defs>
		<rect id="SVGID_45_" x="-12.9" y="-18.3" width="777" height="870.5"/>
	</defs>
	<clipPath id="SVGID_46_">
		<use xlink:href="#SVGID_45_"  style="overflow:visible;"/>
	</clipPath>
	<g class="st19">
		<rect x="-12.9" y="-18.3" class="st2" width="777" height="870.5"/>
	</g>
</g>
<g>
	<defs>
		<rect id="SVGID_47_" x="95.3" y="54" width="556.3" height="671.1"/>
	</defs>
	<clipPath id="SVGID_48_">
		<use xlink:href="#SVGID_47_"  style="overflow:visible;"/>
	</clipPath>
</g>
<g>
	<defs>
		<rect id="SVGID_49_" x="36.6" y="46.5" width="720" height="720"/>
	</defs>
	<clipPath id="SVGID_50_">
		<use xlink:href="#SVGID_49_"  style="overflow:visible;"/>
	</clipPath>
	<g class="st20">
		<line class="st17" x1="91.4" y1="723.2" x2="91.4" y2="52"/>
		<rect x="66.9" y="688.3" class="st21" width="19.6" height="10.4"/>
		<text transform="matrix(1 0 0 1 66.8548 695.8204)" class="st22 st23 st24">2016</text>
		<rect x="66.9" y="535.7" class="st21" width="19.6" height="10.4"/>
		<text transform="matrix(1 0 0 1 66.8548 543.2803)" class="st22 st23 st24">2017</text>
		<rect x="66.9" y="383.2" class="st21" width="19.6" height="10.4"/>
		<text transform="matrix(1 0 0 1 66.8548 390.7501)" class="st22 st23 st24">2018</text>
		<rect x="66.9" y="230.7" class="st21" width="19.6" height="10.4"/>
		<text transform="matrix(1 0 0 1 66.8548 238.2198)" class="st22 st23 st24">2019</text>
		<rect x="66.9" y="78.1" class="st21" width="19.6" height="10.4"/>
		<text transform="matrix(1 0 0 1 66.8548 85.69)" class="st22 st23 st24">2020</text>
		<line class="st18" x1="88.6" y1="692.7" x2="91.4" y2="692.7"/>
		<line class="st18" x1="88.6" y1="540.1" x2="91.4" y2="540.1"/>
		<line class="st18" x1="88.6" y1="387.6" x2="91.4" y2="387.6"/>
		<line class="st18" x1="88.6" y1="235.1" x2="91.4" y2="235.1"/>
		<line class="st18" x1="88.6" y1="82.5" x2="91.4" y2="82.5"/>
		<line class="st17" x1="91.4" y1="723.2" x2="647.7" y2="723.2"/>
		<line class="st18" x1="117.2" y1="725.9" x2="117.2" y2="723.2"/>
		<line class="st18" x1="153.5" y1="725.9" x2="153.5" y2="723.2"/>
		<line class="st18" x1="189.8" y1="725.9" x2="189.8" y2="723.2"/>
		<line class="st18" x1="226.1" y1="725.9" x2="226.1" y2="723.2"/>
		<line class="st18" x1="262.3" y1="725.9" x2="262.3" y2="723.2"/>
		<line class="st18" x1="298.6" y1="725.9" x2="298.6" y2="723.2"/>
		<line class="st18" x1="334.9" y1="725.9" x2="334.9" y2="723.2"/>
		<line class="st18" x1="371.2" y1="725.9" x2="371.2" y2="723.2"/>
		<line class="st18" x1="407.5" y1="725.9" x2="407.5" y2="723.2"/>
		<line class="st18" x1="443.8" y1="725.9" x2="443.8" y2="723.2"/>
		<line class="st18" x1="480.1" y1="725.9" x2="480.1" y2="723.2"/>
		<line class="st18" x1="516.4" y1="725.9" x2="516.4" y2="723.2"/>
		<line class="st18" x1="552.7" y1="725.9" x2="552.7" y2="723.2"/>
		<line class="st18" x1="589" y1="725.9" x2="589" y2="723.2"/>
		<line class="st18" x1="625.3" y1="725.9" x2="625.3" y2="723.2"/>
		<rect x="109.8" y="726.9" class="st21" width="14.7" height="10.4"/>
		<text transform="matrix(1 0 0 1 109.8304 734.4102)" class="st22 st23 st24">105</text>
		<rect x="146.1" y="726.9" class="st21" width="14.7" height="10.4"/>
		<text transform="matrix(1 0 0 1 146.1204 734.4102)" class="st22 st23 st24">120</text>
		<rect x="182.4" y="726.9" class="st21" width="14.7" height="10.4"/>
		<text transform="matrix(1 0 0 1 182.4104 734.4102)" class="st22 st23 st24">135</text>
		<rect x="218.7" y="726.9" class="st21" width="14.7" height="10.4"/>
		<text transform="matrix(1 0 0 1 218.7102 734.4102)" class="st22 st23 st24">150</text>
		<rect x="255" y="726.9" class="st21" width="14.7" height="10.4"/>
		<text transform="matrix(1 0 0 1 255.0003 734.4102)" class="st22 st23 st24">165</text>
		<rect x="291.3" y="726.9" class="st21" width="14.7" height="10.4"/>
		<text transform="matrix(1 0 0 1 291.2903 734.4102)" class="st22 st23 st24">180</text>
		<rect x="327.6" y="726.9" class="st21" width="14.7" height="10.4"/>
		<text transform="matrix(1 0 0 1 327.5901 734.4102)" class="st22 st23 st24">195</text>
		<rect x="363.9" y="726.9" class="st21" width="14.7" height="10.4"/>
		<text transform="matrix(1 0 0 1 363.8802 734.4102)" class="st22 st23 st24">210</text>
		<rect x="400.2" y="726.9" class="st21" width="14.7" height="10.4"/>
		<text transform="matrix(1 0 0 1 400.1702 734.4102)" class="st22 st23 st24">225</text>
		<rect x="436.5" y="726.9" class="st21" width="14.7" height="10.4"/>
		<text transform="matrix(1 0 0 1 436.4705 734.4102)" class="st22 st23 st24">240</text>
		<rect x="472.8" y="726.9" class="st21" width="14.7" height="10.4"/>
		<text transform="matrix(1 0 0 1 472.7605 734.4102)" class="st22 st23 st24">255</text>
		<rect x="509.1" y="726.9" class="st21" width="14.7" height="10.4"/>
		<text transform="matrix(1 0 0 1 509.0506 734.4102)" class="st22 st23 st24">270</text>
		<rect x="545.4" y="726.9" class="st21" width="14.7" height="10.4"/>
		<text transform="matrix(1 0 0 1 545.3503 734.4102)" class="st22 st23 st24">285</text>
		<rect x="581.6" y="726.9" class="st21" width="14.7" height="10.4"/>
		<text transform="matrix(1 0 0 1 581.6404 734.4102)" class="st22 st23 st24">300</text>
		<rect x="617.9" y="726.9" class="st21" width="14.7" height="10.4"/>
		<text transform="matrix(1 0 0 1 617.9304 734.4102)" class="st22 st23 st24">315</text>
		<rect x="341.4" y="737.4" class="st21" width="59.3" height="13"/>
		<text transform="matrix(1 0 0 1 341.4085 746.8702)" class="st25"><tspan x="0" y="0" class="st23 st26">Day</tspan><tspan x="19.6" y="0" class="st23 st26 st27"> </tspan><tspan x="24.2" y="0" class="st23 st26">of</tspan><tspan x="33.3" y="0" class="st23 st26 st27"> </tspan><tspan x="37.9" y="0" class="st23 st26">year</tspan></text>
		<rect x="51.2" y="376.3" class="st21" width="14.6" height="22.4"/>
		<text transform="matrix(6.123234e-17 -1 1 6.123234e-17 60.6483 398.7113)" class="st25"><tspan x="0" y="0" class="st23 st26 st27">Ye</tspan><tspan x="16.3" y="0" class="st23 st26">a</tspan></text>
		<rect x="658.7" y="331.1" class="st0" width="92.4" height="113"/>
		<rect x="664.1" y="336.2" class="st21" width="30" height="13"/>
		<text transform="matrix(1 0 0 1 664.1316 345.5997)" class="st23 st26">phase</text>
		<rect x="686.9" y="356.5" class="st21" width="34.3" height="10.4"/>
		<text transform="matrix(1 0 0 1 686.8914 364.0298)" class="st23 st24">budburst</text>
		<rect x="686.9" y="373.8" class="st21" width="58.7" height="10.4"/>
		<text transform="matrix(1 0 0 1 686.8914 381.3096)" class="st23 st24">Colored leaves</text>
		<text transform="matrix(1 0 0 1 686.8916 398.5899)" class="st23 st24">flowers</text>
		<rect x="686.9" y="408.3" class="st21" width="22" height="10.4"/>
		<text transform="matrix(1 0 0 1 686.8916 415.8699)" class="st23 st24">Fruits</text>
		<rect x="686.9" y="425.6" class="st21" width="26.4" height="10.4"/>
		<text transform="matrix(1 0 0 1 686.8914 433.15)" class="st23 st24">leafout</text>
	</g>
</g>
<g>
	<defs>
		<rect id="SVGID_11_" x="540.3" y="365.7" width="40.2" height="43.9"/>
	</defs>
	<clipPath id="SVGID_51_">
		<use xlink:href="#SVGID_11_"  style="overflow:visible;"/>
	</clipPath>
	<g class="st28">
		<defs>
			<rect id="SVGID_12_" x="538.8" y="364.2" width="43.3" height="46.9"/>
		</defs>
		<clipPath id="SVGID_52_">
			<use xlink:href="#SVGID_12_"  style="overflow:visible;"/>
		</clipPath>
		<g style="clip-path:url(#SVGID_52_);">
			
				<image style="overflow:visible;" width="128" height="138" xlink:href="C0C18A74.png"  transform="matrix(0.3386 0 0 0.3396 538.7522 364.1705)">
			</image>
		</g>
	</g>
</g>
<g>
	<defs>
		<rect id="SVGID_13_" x="525.1" y="213.1" width="40.2" height="43.9"/>
	</defs>
	<clipPath id="SVGID_53_">
		<use xlink:href="#SVGID_13_"  style="overflow:visible;"/>
	</clipPath>
	<g class="st29">
		<defs>
			<rect id="SVGID_14_" x="523.6" y="211.6" width="43.3" height="46.9"/>
		</defs>
		<clipPath id="SVGID_54_">
			<use xlink:href="#SVGID_14_"  style="overflow:visible;"/>
		</clipPath>
		<g transform="matrix(1 0 0 1 0 -1.525879e-05)" style="clip-path:url(#SVGID_54_);">
			
				<image style="overflow:visible;" width="128" height="138" xlink:href="C0C18A76.png"  transform="matrix(0.3386 0 0 0.3396 523.5922 211.6405)">
			</image>
		</g>
	</g>
</g>
<image style="overflow:visible;" width="1600" height="1600" xlink:href="../../../Downloads/flower-png-images 04.png"  transform="matrix(2.185379e-02 0 0 2.185379e-02 168.2468 676.7429)">
</image>
<image style="overflow:visible;" width="1600" height="1600" xlink:href="../../../Downloads/flower-png-images 04.png"  transform="matrix(2.185379e-02 0 0 2.185379e-02 168.2468 676.7429)">
</image>
<image style="overflow:visible;" width="1600" height="1600" xlink:href="../../../Downloads/flower-png-images 04.png"  transform="matrix(2.185379e-02 0 0 2.185379e-02 168.2468 676.7429)">
</image>
<image style="overflow:visible;" width="1600" height="1600" xlink:href="../../../Downloads/flower-png-images 04.png"  transform="matrix(2.185379e-02 0 0 2.185379e-02 168.2468 676.7429)">
</image>
<rect x="-77.8" y="520.1" class="st21" width="54.2" height="74.4"/>
<text transform="matrix(1 0 0 1 -77.8398 528.6161)"><tspan x="0" y="0" style="font-family:'MyriadPro-Regular'; font-size:12px;">&lt;a </tspan><tspan x="0" y="14.4" style="font-family:'MyriadPro-Regular'; font-size:12px;">href=&apos;http</tspan><tspan x="0" y="28.8" style="font-family:'MyriadPro-Regular'; font-size:12px;">s://png</tspan><tspan x="35.7" y="28.8" style="font-family:'MyriadPro-Regular'; font-size:12px;">-</tspan><tspan x="0" y="43.2" style="font-family:'MyriadPro-Regular'; font-size:12px;">tree.com/s</tspan><tspan x="0" y="57.6" style="font-family:'MyriadPro-Regular'; font-size:12px;">o/</tspan><tspan x="10.7" y="57.6" style="font-family:'MyriadPro-Regular'; font-size:12px;">-</tspan></text>
<image style="overflow:visible;" width="1000" height="1500" xlink:href="../../../Downloads/Untitled design.png"  transform="matrix(0.2495 0 0 0.243 893.3988 337.7057)">
</image>
<g>
	<defs>
		<rect id="SVGID_55_" x="357.5" y="371.8" width="94.1" height="93.6"/>
	</defs>
	<clipPath id="SVGID_56_">
		<use xlink:href="#SVGID_55_"  style="overflow:visible;"/>
	</clipPath>
	<g class="st30">
		<defs>
			<rect id="SVGID_57_" x="357.5" y="370.7" width="95.3" height="95.8"/>
		</defs>
		<clipPath id="SVGID_58_">
			<use xlink:href="#SVGID_57_"  style="overflow:visible;"/>
		</clipPath>
		<g style="clip-path:url(#SVGID_58_);">
			
				<image style="overflow:visible;" width="391" height="393" xlink:href="C0C18A7F.png"  transform="matrix(0.2436 0 0 0.2436 357.5314 370.6904)">
			</image>
		</g>
	</g>
</g>
<g>
	<defs>
		<rect id="SVGID_17_" x="318" y="526.9" width="94.1" height="93.6"/>
	</defs>
	<clipPath id="SVGID_59_">
		<use xlink:href="#SVGID_17_"  style="overflow:visible;"/>
	</clipPath>
	<g class="st31">
		<defs>
			<rect id="SVGID_18_" x="318" y="525.8" width="95.3" height="95.8"/>
		</defs>
		<clipPath id="SVGID_60_">
			<use xlink:href="#SVGID_18_"  style="overflow:visible;"/>
		</clipPath>
		<g style="clip-path:url(#SVGID_60_);">
			
				<image style="overflow:visible;" width="391" height="393" xlink:href="DBF8FD94.png"  transform="matrix(0.2436 0 0 0.2436 318.0151 525.7951)">
			</image>
		</g>
	</g>
</g>
<g>
	<defs>
		<rect id="SVGID_21_" x="295" y="59.7" width="94.1" height="93.6"/>
	</defs>
	<clipPath id="SVGID_61_">
		<use xlink:href="#SVGID_21_"  style="overflow:visible;"/>
	</clipPath>
	<g class="st32">
		<defs>
			<rect id="SVGID_22_" x="295" y="58.6" width="95.3" height="95.8"/>
		</defs>
		<clipPath id="SVGID_62_">
			<use xlink:href="#SVGID_22_"  style="overflow:visible;"/>
		</clipPath>
		<g style="clip-path:url(#SVGID_62_);">
			
				<image style="overflow:visible;" width="391" height="393" xlink:href="DBF8FD84.png"  transform="matrix(0.2436 0 0 0.2436 294.966 58.5715)">
			</image>
		</g>
	</g>
</g>
<g>
	<defs>
		<rect id="SVGID_23_" x="282.1" y="216.2" width="94.1" height="93.6"/>
	</defs>
	<clipPath id="SVGID_63_">
		<use xlink:href="#SVGID_23_"  style="overflow:visible;"/>
	</clipPath>
	<g class="st33">
		<defs>
			<rect id="SVGID_24_" x="282.1" y="215.1" width="95.3" height="95.8"/>
		</defs>
		<clipPath id="SVGID_64_">
			<use xlink:href="#SVGID_24_"  style="overflow:visible;"/>
		</clipPath>
		<g style="clip-path:url(#SVGID_64_);">
			
				<image style="overflow:visible;" width="391" height="393" xlink:href="DBF8FD85.png"  transform="matrix(0.2436 0 0 0.2436 282.0562 215.0835)">
			</image>
		</g>
	</g>
</g>
<g>
	<defs>
		<rect id="SVGID_65_" x="518.9" y="506.6" width="79.9" height="86.4"/>
	</defs>
	<clipPath id="SVGID_66_">
		<use xlink:href="#SVGID_65_"  style="overflow:visible;"/>
	</clipPath>
	<g class="st34">
		<defs>
			<rect id="SVGID_67_" x="517.7" y="505.5" width="81.1" height="88.7"/>
		</defs>
		<clipPath id="SVGID_68_">
			<use xlink:href="#SVGID_67_"  style="overflow:visible;"/>
		</clipPath>
		<g transform="matrix(1 0 0 1 0 -3.051758e-05)" style="clip-path:url(#SVGID_68_);">
			
				<image style="overflow:visible;" width="333" height="364" xlink:href="DBF8FD86.png"  transform="matrix(0.2436 0 0 0.2436 517.704 505.5206)">
			</image>
		</g>
	</g>
</g>
<rect x="154.5" y="380.2" class="st35" width="35.3" height="12.8"/>
<g>
	<defs>
		<rect id="SVGID_69_" x="522.1" y="633.4" width="79.9" height="80.4"/>
	</defs>
	<clipPath id="SVGID_70_">
		<use xlink:href="#SVGID_69_"  style="overflow:visible;"/>
	</clipPath>
	<g class="st36">
		<defs>
			<rect id="SVGID_71_" x="520.9" y="632.3" width="81.1" height="82.6"/>
		</defs>
		<clipPath id="SVGID_72_">
			<use xlink:href="#SVGID_71_"  style="overflow:visible;"/>
		</clipPath>
		<g style="clip-path:url(#SVGID_72_);">
			
				<image style="overflow:visible;" width="333" height="339" xlink:href="DBF8FD83.png"  transform="matrix(0.2436 0 0 0.2436 520.875 632.3174)">
			</image>
		</g>
	</g>
</g>
<g>
	<defs>
		<rect id="SVGID_73_" x="143.5" y="366.4" width="56.7" height="67.2"/>
	</defs>
	<clipPath id="SVGID_74_">
		<use xlink:href="#SVGID_73_"  style="overflow:visible;"/>
	</clipPath>
	<g class="st37">
		<defs>
			<rect id="SVGID_75_" x="143.2" y="366.1" width="57.3" height="67.5"/>
		</defs>
		<clipPath id="SVGID_76_">
			<use xlink:href="#SVGID_75_"  style="overflow:visible;"/>
		</clipPath>
		<g transform="matrix(1 0 0 1 0 0)" style="clip-path:url(#SVGID_76_);">
			
				<image style="overflow:visible;" width="1081" height="1157" xlink:href="DBF8FDBE.png"  transform="matrix(5.299271e-02 0 0 5.830270e-02 143.2329 366.092)">
			</image>
		</g>
	</g>
</g>
<g>
	<defs>
		<rect id="SVGID_77_" x="326.7" y="640.8" width="54" height="80.4"/>
	</defs>
	<clipPath id="SVGID_78_">
		<use xlink:href="#SVGID_77_"  style="overflow:visible;"/>
	</clipPath>
	<g class="st38">
		<defs>
			<rect id="SVGID_79_" x="325.6" y="639.7" width="56.3" height="82.6"/>
		</defs>
		<clipPath id="SVGID_80_">
			<use xlink:href="#SVGID_79_"  style="overflow:visible;"/>
		</clipPath>
		<g style="clip-path:url(#SVGID_80_);">
			
				<image style="overflow:visible;" width="231" height="339" xlink:href="DBF8FDBF.png"  transform="matrix(0.2436 0 0 0.2436 325.6102 639.73)">
			</image>
		</g>
	</g>
</g>
<g>
	<defs>
		<rect id="SVGID_9_" x="522.7" y="352.2" width="79.9" height="86.4"/>
	</defs>
	<clipPath id="SVGID_81_">
		<use xlink:href="#SVGID_9_"  style="overflow:visible;"/>
	</clipPath>
	<g class="st39">
		<defs>
			<rect id="SVGID_10_" x="521.5" y="351.1" width="81.1" height="88.7"/>
		</defs>
		<clipPath id="SVGID_82_">
			<use xlink:href="#SVGID_10_"  style="overflow:visible;"/>
		</clipPath>
		<g style="clip-path:url(#SVGID_82_);">
			
				<image style="overflow:visible;" width="333" height="364" xlink:href="DBF8FD82.png"  transform="matrix(0.2436 0 0 0.2436 521.469 351.1037)">
			</image>
		</g>
	</g>
</g>
<g>
	<defs>
		<rect id="SVGID_19_" x="505.9" y="191.8" width="79.9" height="86.4"/>
	</defs>
	<clipPath id="SVGID_83_">
		<use xlink:href="#SVGID_19_"  style="overflow:visible;"/>
	</clipPath>
	<g class="st40">
		<defs>
			<rect id="SVGID_20_" x="504.7" y="190.7" width="81.1" height="88.7"/>
		</defs>
		<clipPath id="SVGID_84_">
			<use xlink:href="#SVGID_20_"  style="overflow:visible;"/>
		</clipPath>
		<g style="clip-path:url(#SVGID_84_);">
			
				<image style="overflow:visible;" width="333" height="364" xlink:href="DBF8FD81.png"  transform="matrix(0.2436 0 0 0.2436 504.6947 190.7265)">
			</image>
		</g>
	</g>
</g>
<g>
	<defs>
		<rect id="SVGID_15_" x="499.9" y="45.5" width="79.9" height="86.4"/>
	</defs>
	<clipPath id="SVGID_85_">
		<use xlink:href="#SVGID_15_"  style="overflow:visible;"/>
	</clipPath>
	<g class="st41">
		<defs>
			<rect id="SVGID_16_" x="498.7" y="44.4" width="81.1" height="88.7"/>
		</defs>
		<clipPath id="SVGID_86_">
			<use xlink:href="#SVGID_16_"  style="overflow:visible;"/>
		</clipPath>
		<g style="clip-path:url(#SVGID_86_);">
			
				<image style="overflow:visible;" width="333" height="364" xlink:href="DBF8FD80.png"  transform="matrix(0.2436 0 0 0.2436 498.7217 44.3859)">
			</image>
		</g>
	</g>
</g>
<g>
	<defs>
		<rect id="SVGID_87_" x="156.3" y="518.6" width="48.1" height="52.7"/>
	</defs>
	<clipPath id="SVGID_88_">
		<use xlink:href="#SVGID_87_"  style="overflow:visible;"/>
	</clipPath>
	<g class="st42">
		<defs>
			<rect id="SVGID_89_" x="155.4" y="517.7" width="49.7" height="54.5"/>
		</defs>
		<clipPath id="SVGID_90_">
			<use xlink:href="#SVGID_89_"  style="overflow:visible;"/>
		</clipPath>
		<g transform="matrix(1 0 0 1 0 0)" style="clip-path:url(#SVGID_90_);">
			
				<image style="overflow:visible;" width="290" height="290" xlink:href="DBF8FDEA.png"  transform="matrix(0.1715 0 0 0.1878 155.4289 517.6654)">
			</image>
		</g>
	</g>
</g>
<g>
	<defs>
		<rect id="SVGID_25_" x="167.6" y="649.7" width="48.1" height="52.7"/>
	</defs>
	<clipPath id="SVGID_91_">
		<use xlink:href="#SVGID_25_"  style="overflow:visible;"/>
	</clipPath>
	<g class="st43">
		<defs>
			<rect id="SVGID_26_" x="166.8" y="648.8" width="49.7" height="54.5"/>
		</defs>
		<clipPath id="SVGID_92_">
			<use xlink:href="#SVGID_26_"  style="overflow:visible;"/>
		</clipPath>
		<g transform="matrix(1 0 0 1 0 0)" style="clip-path:url(#SVGID_92_);">
			
				<image style="overflow:visible;" width="290" height="290" xlink:href="DBF8FDEB.png"  transform="matrix(0.1715 0 0 0.1878 166.7513 648.7998)">
			</image>
		</g>
	</g>
</g>
<g>
	<defs>
		<rect id="SVGID_27_" x="224.4" y="371.6" width="48.1" height="52.7"/>
	</defs>
	<clipPath id="SVGID_93_">
		<use xlink:href="#SVGID_27_"  style="overflow:visible;"/>
	</clipPath>
	<g class="st44">
		<defs>
			<rect id="SVGID_28_" x="223.6" y="370.7" width="49.7" height="54.5"/>
		</defs>
		<clipPath id="SVGID_94_">
			<use xlink:href="#SVGID_28_"  style="overflow:visible;"/>
		</clipPath>
		<g transform="matrix(1 0 0 1 -1.525879e-05 0)" style="clip-path:url(#SVGID_94_);">
			
				<image style="overflow:visible;" width="290" height="290" xlink:href="DBF8FDEE.png"  transform="matrix(0.1715 0 0 0.1878 223.5898 370.7185)">
			</image>
		</g>
	</g>
</g>
<rect x="254.9" y="409.6" class="st45" width="341.3" height="14.2"/>
<g>
	<defs>
		<rect id="SVGID_29_" x="180.9" y="213.7" width="48.1" height="52.7"/>
	</defs>
	<clipPath id="SVGID_95_">
		<use xlink:href="#SVGID_29_"  style="overflow:visible;"/>
	</clipPath>
	<g class="st46">
		<defs>
			<rect id="SVGID_30_" x="180.1" y="212.8" width="49.7" height="54.5"/>
		</defs>
		<clipPath id="SVGID_96_">
			<use xlink:href="#SVGID_30_"  style="overflow:visible;"/>
		</clipPath>
		<g transform="matrix(1 0 0 1 0 0)" style="clip-path:url(#SVGID_96_);">
			
				<image style="overflow:visible;" width="290" height="290" xlink:href="DBF8FDEF.png"  transform="matrix(0.1715 0 0 0.1878 180.0619 212.7679)">
			</image>
		</g>
	</g>
</g>
<rect x="154.8" y="252.2" class="st45" width="420.3" height="14.6"/>
<g>
	<defs>
		<rect id="SVGID_31_" x="196.1" y="63.1" width="48.1" height="52.7"/>
	</defs>
	<clipPath id="SVGID_97_">
		<use xlink:href="#SVGID_31_"  style="overflow:visible;"/>
	</clipPath>
	<g class="st47">
		<defs>
			<rect id="SVGID_32_" x="195.3" y="62.2" width="49.7" height="54.5"/>
		</defs>
		<clipPath id="SVGID_98_">
			<use xlink:href="#SVGID_32_"  style="overflow:visible;"/>
		</clipPath>
		<g transform="matrix(1 0 0 1 0 0)" style="clip-path:url(#SVGID_98_);">
			
				<image style="overflow:visible;" width="290" height="290" xlink:href="DBF8FDED.png"  transform="matrix(0.1715 0 0 0.1878 195.2807 62.1657)">
			</image>
		</g>
	</g>
</g>
<image style="overflow:visible;" width="3000" height="3000" xlink:href="../../../Downloads/—Pngtree—yellow fruit flower illustration_4687362.png"  transform="matrix(2.052244e-02 0 0 2.052244e-02 358.5429 508.4483)">
</image>
<image style="overflow:visible;" width="3000" height="3000" xlink:href="../../../Downloads/—Pngtree—yellow fruit flower illustration_4687362.png"  transform="matrix(2.052244e-02 0 0 2.052244e-02 358.5429 508.4483)">
</image>
<rect x="131.5" y="76.3" class="st35" width="66.5" height="13.1"/>
<rect x="131.9" y="227" class="st35" width="82" height="12.7"/>
<rect x="114.9" y="532.4" class="st35" width="69.8" height="14"/>
<rect x="143.2" y="663.1" class="st35" width="67.4" height="13.2"/>
<rect x="162.7" y="89" class="st14" width="110.8" height="13.4"/>
<rect x="172.9" y="101.8" class="st45" width="332.8" height="15.4"/>
<rect x="279.5" y="116.3" class="st48" width="153.3" height="15.4"/>
<rect x="469" y="86.5" class="st49" width="127.2" height="15.5"/>
<image style="overflow:visible;" width="3000" height="3000" xlink:href="../../../Downloads/—Pngtree—yellow fruit flower illustration_4687362.png"  transform="matrix(2.052244e-02 0 0 2.052244e-02 358.5429 508.4483)">
</image>
<g>
	<defs>
		<rect id="SVGID_6_" x="132.8" y="60.8" width="56.7" height="67.2"/>
	</defs>
	<clipPath id="SVGID_99_">
		<use xlink:href="#SVGID_6_"  style="overflow:visible;"/>
	</clipPath>
	<g class="st50">
		<defs>
			<rect id="SVGID_8_" x="132.5" y="60.5" width="57.3" height="67.5"/>
		</defs>
		<clipPath id="SVGID_100_">
			<use xlink:href="#SVGID_8_"  style="overflow:visible;"/>
		</clipPath>
		<g transform="matrix(1 0 0 1 0 0)" style="clip-path:url(#SVGID_100_);">
			
				<image style="overflow:visible;" width="1081" height="1157" xlink:href="DBF8FDF8.png"  transform="matrix(5.299271e-02 0 0 5.830270e-02 132.4782 60.4858)">
			</image>
		</g>
	</g>
</g>
<rect x="168.5" y="239" class="st14" width="110.8" height="13.4"/>
<g>
	<defs>
		<rect id="SVGID_3_" x="131.8" y="213.2" width="56.7" height="67.2"/>
	</defs>
	<clipPath id="SVGID_101_">
		<use xlink:href="#SVGID_3_"  style="overflow:visible;"/>
	</clipPath>
	<g class="st51">
		<defs>
			<rect id="SVGID_4_" x="131.5" y="212.9" width="57.3" height="67.5"/>
		</defs>
		<clipPath id="SVGID_102_">
			<use xlink:href="#SVGID_4_"  style="overflow:visible;"/>
		</clipPath>
		<g transform="matrix(1 0 0 1 0 0)" style="clip-path:url(#SVGID_102_);">
			
				<image style="overflow:visible;" width="1081" height="1157" xlink:href="DBF8FDFA.png"  transform="matrix(5.299271e-02 0 0 5.830270e-02 131.544 212.8704)">
			</image>
		</g>
	</g>
</g>
<rect x="240.7" y="266" class="st48" width="224.4" height="16.8"/>
<rect x="471" y="235.6" class="st49" width="141.6" height="16.8"/>
<rect x="213.4" y="395.6" class="st14" width="92.8" height="14"/>
<rect x="307.2" y="424" class="st48" width="205.9" height="14.2"/>
<rect x="519" y="393" class="st49" width="88.3" height="16.8"/>
<rect x="143.2" y="547" class="st14" width="115.3" height="14"/>
<rect x="275.5" y="576.9" class="st48" width="224.5" height="14.2"/>
<rect x="500" y="544.7" class="st49" width="124.7" height="16.8"/>
<rect x="151.7" y="561.1" class="st45" width="469.2" height="14.8"/>
<image style="overflow:visible;" width="3000" height="3000" xlink:href="../../../Downloads/—Pngtree—yellow fruit flower illustration_4687362.png"  transform="matrix(2.052244e-02 0 0 2.052244e-02 358.5429 508.4483)">
</image>
<g>
	<defs>
		<rect id="SVGID_5_" x="116.6" y="512.9" width="56.7" height="67.2"/>
	</defs>
	<clipPath id="SVGID_103_">
		<use xlink:href="#SVGID_5_"  style="overflow:visible;"/>
	</clipPath>
	<g class="st52">
		<defs>
			<rect id="SVGID_7_" x="116.3" y="512.6" width="57.3" height="67.5"/>
		</defs>
		<clipPath id="SVGID_104_">
			<use xlink:href="#SVGID_7_"  style="overflow:visible;"/>
		</clipPath>
		<g transform="matrix(1 0 0 1 0 0)" style="clip-path:url(#SVGID_104_);">
			
				<image style="overflow:visible;" width="1081" height="1157" xlink:href="DBF8FDC4.png"  transform="matrix(5.299271e-02 0 0 5.830270e-02 116.3125 512.6011)">
			</image>
		</g>
	</g>
</g>
<rect x="442.8" y="671.6" class="st49" width="182.2" height="16.8"/>
<rect x="151.2" y="676.7" class="st14" width="74.3" height="12.2"/>
<rect x="292.1" y="702.6" class="st48" width="167.8" height="14.2"/>
<rect x="178.7" y="688.3" class="st45" width="436.3" height="13.7"/>
<g>
	<defs>
		<rect id="SVGID_1_" x="139.7" y="645.5" width="56.7" height="67.2"/>
	</defs>
	<clipPath id="SVGID_105_">
		<use xlink:href="#SVGID_1_"  style="overflow:visible;"/>
	</clipPath>
	<g class="st53">
		<defs>
			<rect id="SVGID_2_" x="139.4" y="645.2" width="57.3" height="67.5"/>
		</defs>
		<clipPath id="SVGID_106_">
			<use xlink:href="#SVGID_2_"  style="overflow:visible;"/>
		</clipPath>
		<g transform="matrix(1 0 0 1 0 0)" style="clip-path:url(#SVGID_106_);">
			
				<image style="overflow:visible;" width="1081" height="1157" xlink:href="DBF8FDC5.png"  transform="matrix(5.299271e-02 0 0 5.830270e-02 139.3796 645.2388)">
			</image>
		</g>
	</g>
</g>
<image style="overflow:visible;" width="3000" height="3000" xlink:href="../../../Downloads/—Pngtree—yellow fruit flower illustration_4687362.png"  transform="matrix(2.052244e-02 0 0 2.052244e-02 358.5429 508.4483)">
</image>
<g>
	<defs>
		<rect id="SVGID_33_" x="655.5" y="350.9" width="31.7" height="37.5"/>
	</defs>
	<clipPath id="SVGID_107_">
		<use xlink:href="#SVGID_33_"  style="overflow:visible;"/>
	</clipPath>
	<g class="st54">
		<defs>
			<rect id="SVGID_34_" x="655.3" y="350.8" width="32" height="37.7"/>
		</defs>
		<clipPath id="SVGID_108_">
			<use xlink:href="#SVGID_34_"  style="overflow:visible;"/>
		</clipPath>
		<g style="clip-path:url(#SVGID_108_);">
			
				<image style="overflow:visible;" width="1081" height="1157" xlink:href="DBF8FDCD.png"  transform="matrix(2.961323e-02 0 0 3.258055e-02 655.3022 350.779)">
			</image>
		</g>
	</g>
</g>
</svg>
