<?xml version="1.0" encoding="utf-8"?>
<!-- Generator: Adobe Illustrator 24.1.2, SVG Export Plug-In . SVG Version: 6.00 Build 0)  -->
<svg version="1.1" id="Layer_1" xmlns="http://www.w3.org/2000/svg" xmlns:xlink="http://www.w3.org/1999/xlink" x="0px" y="0px"
	 viewBox="0 0 720 432" style="enable-background:new 0 0 720 432;" xml:space="preserve">
<style type="text/css">
	.st0{fill:#FFFFFF;}
	.st1{clip-path:url(#SVGID_2_);}
	.st2{fill:#FFFFFF;stroke:#FFFFFF;stroke-width:1.07;stroke-linecap:round;stroke-linejoin:round;stroke-miterlimit:10;}
	.st3{clip-path:url(#SVGID_4_);}
	.st4{fill:none;stroke:#F8766D;stroke-width:2;stroke-linejoin:round;stroke-miterlimit:10;}
	.st5{clip-path:url(#SVGID_8_);}
	.st6{fill:none;stroke:#A3A500;stroke-width:2;stroke-linejoin:round;stroke-miterlimit:10;}
	.st7{clip-path:url(#SVGID_12_);}
	.st8{fill:none;stroke:#00BF7D;stroke-width:2;stroke-linejoin:round;stroke-miterlimit:10;}
	.st9{clip-path:url(#SVGID_16_);}
	.st10{fill:none;stroke:#00B0F6;stroke-width:2;stroke-linejoin:round;stroke-miterlimit:10;}
	.st11{clip-path:url(#SVGID_20_);}
	.st12{fill:none;stroke:#E76BF3;stroke-width:2;stroke-linejoin:round;stroke-miterlimit:10;}
	.st13{clip-path:url(#SVGID_24_);}
	.st14{fill:#FFFFFF;stroke:#000000;stroke-width:2.13;stroke-linecap:round;stroke-linejoin:round;stroke-miterlimit:10;}
	.st15{fill:none;}
	.st16{fill:#1A1A1A;}
	.st17{font-family:'ArialMT';}
	.st18{font-size:8.8px;}
	.st19{clip-path:url(#SVGID_28_);}
	.st20{clip-path:url(#SVGID_32_);}
	.st21{clip-path:url(#SVGID_36_);}
	.st22{clip-path:url(#SVGID_40_);}
	.st23{clip-path:url(#SVGID_42_);}
	.st24{fill:none;stroke:#000000;stroke-width:1.07;stroke-linejoin:round;stroke-miterlimit:10;}
	.st25{fill:none;stroke:#333333;stroke-width:1.07;stroke-linejoin:round;stroke-miterlimit:10;}
	.st26{fill:#4D4D4D;}
	.st27{font-size:7px;}
	.st28{enable-background:new    ;}
	.st29{letter-spacing:3;}
	.st30{font-size:11px;}
	.st31{letter-spacing:2;}
</style>
<rect class="st0" width="720" height="432"/>
<g>
	<defs>
		<rect id="SVGID_1_" width="720" height="432"/>
	</defs>
	<clipPath id="SVGID_2_">
		<use xlink:href="#SVGID_1_"  style="overflow:visible;"/>
	</clipPath>
	<g class="st1">
		<rect class="st2" width="720" height="432"/>
	</g>
</g>
<g>
	<defs>
		<rect id="SVGID_3_" x="45" y="22.4" width="116.7" height="361.5"/>
	</defs>
	<clipPath id="SVGID_4_">
		<use xlink:href="#SVGID_3_"  style="overflow:visible;"/>
	</clipPath>
	<g class="st3">
		<rect x="45" y="22.4" class="st0" width="116.7" height="361.5"/>
		<polyline class="st4" points="50.3,330.3 53,325.6 55.6,255.6 58.3,238.1 60.9,308.9 63.6,310.8 66.2,283.7 68.9,281.5 
			71.5,260.2 74.2,249.1 76.8,267.3 79.5,265.3 82.1,204.5 84.8,160.3 87.4,209.3 90.1,266.9 92.7,248.2 95.4,306.8 98.1,274.6 
			100.7,270.3 103.3,277.7 106,258.5 108.7,277.4 111.3,275.7 114,277 116.6,284.8 119.3,290.3 121.9,269.7 124.6,275.1 
			127.2,238.1 129.9,229.4 132.5,220.3 135.2,185.9 137.8,175.1 140.5,179.5 143.1,160.1 145.8,238.1 148.4,264.6 151.1,202.9 
			153.7,220 156.4,217.8 		"/>
	</g>
</g>
<g>
	<defs>
		<rect id="SVGID_5_" width="720" height="432"/>
	</defs>
	<clipPath id="SVGID_6_">
		<use xlink:href="#SVGID_5_"  style="overflow:visible;"/>
	</clipPath>
</g>
<g>
	<defs>
		<rect id="SVGID_7_" x="167.2" y="22.4" width="116.7" height="361.5"/>
	</defs>
	<clipPath id="SVGID_8_">
		<use xlink:href="#SVGID_7_"  style="overflow:visible;"/>
	</clipPath>
	<g class="st5">
		<rect x="167.2" y="22.4" class="st0" width="116.7" height="361.5"/>
		<polyline class="st6" points="172.5,187.7 175.1,151.9 177.8,215.1 180.4,257 183.1,258.8 185.7,227.1 188.4,123.3 191,161.5 
			193.7,283.4 196.3,293.2 199,266.4 201.6,292.3 204.3,297.6 206.9,253.7 209.6,220.1 212.2,273 214.9,242.8 217.5,219.4 
			220.2,152.1 222.8,125.4 225.5,255 228.1,279 230.8,234.7 233.4,231.8 236.1,251 238.8,266.8 241.4,207.2 244.1,219.5 
			246.7,271.9 249.4,287.3 252,251.6 254.7,260.1 257.3,267 260,275.4 262.6,276.7 265.3,249.9 267.9,160.1 270.6,102.9 273.2,54.6 
			275.9,103.4 278.5,209.3 		"/>
	</g>
</g>
<g>
	<defs>
		<rect id="SVGID_9_" width="720" height="432"/>
	</defs>
	<clipPath id="SVGID_10_">
		<use xlink:href="#SVGID_9_"  style="overflow:visible;"/>
	</clipPath>
</g>
<g>
	<defs>
		<rect id="SVGID_11_" x="289.3" y="22.4" width="116.7" height="361.5"/>
	</defs>
	<clipPath id="SVGID_12_">
		<use xlink:href="#SVGID_11_"  style="overflow:visible;"/>
	</clipPath>
	<g class="st7">
		<rect x="289.3" y="22.4" class="st0" width="116.7" height="361.5"/>
		<polyline class="st8" points="294.6,341.4 297.3,336.3 299.9,287.9 302.6,215.8 305.2,284.6 307.9,354.4 310.5,300.1 313.2,289.2 
			315.8,299.5 318.5,322.1 321.1,302.4 323.8,272.1 326.4,262.4 329.1,253.2 331.7,233.1 334.4,235.8 337,202.1 339.7,254 
			342.3,200 345,245 347.6,297.3 350.3,230.1 352.9,108.8 355.6,108 358.2,108.1 360.9,156.8 363.5,197.1 366.2,227.3 368.9,212.8 
			371.5,221.1 374.1,204.4 376.8,191.9 379.5,262.1 382.1,255.6 384.8,200.6 387.4,162.9 390.1,235.9 392.7,179.4 395.4,232.5 
			398,265.5 400.7,151.9 		"/>
	</g>
</g>
<g>
	<defs>
		<rect id="SVGID_13_" width="720" height="432"/>
	</defs>
	<clipPath id="SVGID_14_">
		<use xlink:href="#SVGID_13_"  style="overflow:visible;"/>
	</clipPath>
</g>
<g>
	<defs>
		<rect id="SVGID_15_" x="411.5" y="22.4" width="116.7" height="361.5"/>
	</defs>
	<clipPath id="SVGID_16_">
		<use xlink:href="#SVGID_15_"  style="overflow:visible;"/>
	</clipPath>
	<g class="st9">
		<rect x="411.5" y="22.4" class="st0" width="116.7" height="361.5"/>
		<polyline class="st10" points="416.8,323 419.4,304.5 422.1,279.3 424.7,181.3 427.4,208.9 430,215.1 432.7,265.2 435.3,260.1 
			438,273.6 440.6,152 443.3,164.1 445.9,189.7 448.6,239.6 451.2,266.9 453.9,228.8 456.5,255.9 459.2,281.7 461.8,273.1 
			464.5,279.6 467.1,260.7 469.8,283.6 472.4,264.6 475.1,289.6 477.7,260.8 480.4,249.8 483,266 485.7,251.7 488.3,209.7 
			491,219.4 493.6,251.1 496.3,227.5 499,189.8 501.6,289.6 504.3,284.2 506.9,302.3 509.5,257.4 512.2,221.2 514.9,225.9 
			517.5,197.6 520.2,195.2 522.8,126.9 		"/>
	</g>
</g>
<g>
	<defs>
		<rect id="SVGID_17_" width="720" height="432"/>
	</defs>
	<clipPath id="SVGID_18_">
		<use xlink:href="#SVGID_17_"  style="overflow:visible;"/>
	</clipPath>
</g>
<g>
	<defs>
		<rect id="SVGID_19_" x="533.6" y="22.4" width="116.7" height="361.5"/>
	</defs>
	<clipPath id="SVGID_20_">
		<use xlink:href="#SVGID_19_"  style="overflow:visible;"/>
	</clipPath>
	<g class="st11">
		<rect x="533.6" y="22.4" class="st0" width="116.7" height="361.5"/>
		<polyline class="st12" points="538.9,291 541.5,305.9 544.2,296.7 546.8,272.8 549.5,213.8 552.2,246.8 554.8,288.2 557.5,322.3 
			560.1,308.2 562.8,340.3 565.4,274 568.1,289 570.7,310.2 573.4,328 576,295.1 578.7,307.8 581.3,270.9 584,295 586.6,324 
			589.3,304.8 591.9,288.8 594.6,270.4 597.2,213.9 599.9,210.5 602.5,158 605.2,190.8 607.8,254.9 610.5,283.1 613.1,244.6 
			615.8,263.3 618.4,319.5 621.1,277.4 623.7,252.4 626.4,269.9 629,265.2 631.7,216.2 634.3,170.2 637,194.3 639.7,212.7 
			642.3,232.9 645,253.2 		"/>
	</g>
</g>
<g>
	<defs>
		<rect id="SVGID_21_" width="720" height="432"/>
	</defs>
	<clipPath id="SVGID_22_">
		<use xlink:href="#SVGID_21_"  style="overflow:visible;"/>
	</clipPath>
</g>
<g>
	<defs>
		<rect id="SVGID_23_" x="45" y="5.5" width="116.7" height="16.9"/>
	</defs>
	<clipPath id="SVGID_24_">
		<use xlink:href="#SVGID_23_"  style="overflow:visible;"/>
	</clipPath>
	<g class="st13">
		<rect x="45" y="5.5" class="st14" width="116.7" height="16.9"/>
		<rect x="93.6" y="9.5" class="st15" width="19.6" height="10.4"/>
		<text transform="matrix(1 0 0 1 93.5615 17.0898)" class="st16 st17 st18">2016</text>
	</g>
</g>
<g>
	<defs>
		<rect id="SVGID_25_" width="720" height="432"/>
	</defs>
	<clipPath id="SVGID_26_">
		<use xlink:href="#SVGID_25_"  style="overflow:visible;"/>
	</clipPath>
</g>
<g>
	<defs>
		<rect id="SVGID_27_" x="167.2" y="5.5" width="116.7" height="16.9"/>
	</defs>
	<clipPath id="SVGID_28_">
		<use xlink:href="#SVGID_27_"  style="overflow:visible;"/>
	</clipPath>
	<g class="st19">
		<rect x="167.2" y="5.5" class="st14" width="116.7" height="16.9"/>
		<rect x="215.7" y="9.5" class="st15" width="19.6" height="10.4"/>
		<text transform="matrix(1 0 0 1 215.7017 17.0898)" class="st16 st17 st18">2017</text>
	</g>
</g>
<g>
	<defs>
		<rect id="SVGID_29_" width="720" height="432"/>
	</defs>
	<clipPath id="SVGID_30_">
		<use xlink:href="#SVGID_29_"  style="overflow:visible;"/>
	</clipPath>
</g>
<g>
	<defs>
		<rect id="SVGID_31_" x="289.3" y="5.5" width="116.7" height="16.9"/>
	</defs>
	<clipPath id="SVGID_32_">
		<use xlink:href="#SVGID_31_"  style="overflow:visible;"/>
	</clipPath>
	<g class="st20">
		<rect x="289.3" y="5.5" class="st14" width="116.7" height="16.9"/>
		<rect x="337.9" y="9.5" class="st15" width="19.6" height="10.4"/>
		<text transform="matrix(1 0 0 1 337.8516 17.0898)" class="st16 st17 st18">2018</text>
	</g>
</g>
<g>
	<defs>
		<rect id="SVGID_33_" width="720" height="432"/>
	</defs>
	<clipPath id="SVGID_34_">
		<use xlink:href="#SVGID_33_"  style="overflow:visible;"/>
	</clipPath>
</g>
<g>
	<defs>
		<rect id="SVGID_35_" x="411.5" y="5.5" width="116.7" height="16.9"/>
	</defs>
	<clipPath id="SVGID_36_">
		<use xlink:href="#SVGID_35_"  style="overflow:visible;"/>
	</clipPath>
	<g class="st21">
		<rect x="411.5" y="5.5" class="st14" width="116.7" height="16.9"/>
		<rect x="460" y="9.5" class="st15" width="19.6" height="10.4"/>
		<text transform="matrix(1 0 0 1 459.9917 17.0898)" class="st16 st17 st18">2019</text>
	</g>
</g>
<g>
	<defs>
		<rect id="SVGID_37_" width="720" height="432"/>
	</defs>
	<clipPath id="SVGID_38_">
		<use xlink:href="#SVGID_37_"  style="overflow:visible;"/>
	</clipPath>
</g>
<g>
	<defs>
		<rect id="SVGID_39_" x="533.6" y="5.5" width="116.7" height="16.9"/>
	</defs>
	<clipPath id="SVGID_40_">
		<use xlink:href="#SVGID_39_"  style="overflow:visible;"/>
	</clipPath>
	<g class="st22">
		<rect x="533.6" y="5.5" class="st14" width="116.7" height="16.9"/>
		<rect x="582.1" y="9.5" class="st15" width="19.6" height="10.4"/>
		<text transform="matrix(1 0 0 1 582.1416 17.0898)" class="st16 st17 st18">2020</text>
	</g>
</g>
<g>
	<defs>
		<rect id="SVGID_41_" width="720" height="432"/>
	</defs>
	<clipPath id="SVGID_42_">
		<use xlink:href="#SVGID_41_"  style="overflow:visible;"/>
	</clipPath>
	<g class="st23">
		<line class="st24" x1="45" y1="383.9" x2="161.7" y2="383.9"/>
		<line class="st25" x1="50.3" y1="386.7" x2="50.3" y2="383.9"/>
		<line class="st25" x1="63.6" y1="386.7" x2="63.6" y2="383.9"/>
		<line class="st25" x1="76.8" y1="386.7" x2="76.8" y2="383.9"/>
		<line class="st25" x1="90.1" y1="386.7" x2="90.1" y2="383.9"/>
		<line class="st25" x1="103.3" y1="386.7" x2="103.3" y2="383.9"/>
		<line class="st25" x1="116.6" y1="386.7" x2="116.6" y2="383.9"/>
		<line class="st25" x1="129.9" y1="386.7" x2="129.9" y2="383.9"/>
		<line class="st25" x1="143.1" y1="386.7" x2="143.1" y2="383.9"/>
		<line class="st25" x1="156.4" y1="386.7" x2="156.4" y2="383.9"/>
		
			<rect x="42.6" y="391.1" transform="matrix(0.7074 -0.7068 0.7068 0.7074 -265.1618 149.8426)" class="st15" width="11.7" height="8.3"/>
		<text transform="matrix(0.7071 -0.7071 0.7071 0.7071 45.5988 400.6578)" class="st26 st17 st27">100</text>
		
			<rect x="55.8" y="391.1" transform="matrix(0.7074 -0.7068 0.7068 0.7074 -261.2824 159.2145)" class="st15" width="11.7" height="8.3"/>
		<text transform="matrix(0.7071 -0.7071 0.7071 0.7071 58.8587 400.6574)" class="st26 st17 st27">105</text>
		
			<rect x="69.5" y="390.9" transform="matrix(0.7074 -0.7068 0.7068 0.7074 -257.2193 168.6622)" class="st15" width="11.2" height="8.3"/>
		<text transform="matrix(0.7071 -0.7071 0.7071 0.7071 72.4857 400.2915)" class="st28"><tspan x="0" y="0" class="st26 st17 st27 st29">1</tspan><tspan x="7.3" y="0" class="st26 st17 st27">1</tspan></text>
		
			<rect x="82.8" y="390.9" transform="matrix(0.7074 -0.7068 0.7068 0.7074 -253.3399 178.0341)" class="st15" width="11.2" height="8.3"/>
		<text transform="matrix(0.7071 -0.7071 0.7071 0.7071 85.7457 400.2911)" class="st28"><tspan x="0" y="0" class="st26 st17 st27 st29">1</tspan><tspan x="7.3" y="0" class="st26 st17 st27">1</tspan></text>
		
			<rect x="95.6" y="391.1" transform="matrix(0.7074 -0.7068 0.7068 0.7074 -249.647 187.3232)" class="st15" width="11.7" height="8.3"/>
		<text transform="matrix(0.7071 -0.7071 0.7071 0.7071 98.629 400.6578)" class="st26 st17 st27">120</text>
		
			<rect x="108.9" y="391.1" transform="matrix(0.7074 -0.7068 0.7068 0.7074 -245.7676 196.6951)" class="st15" width="11.7" height="8.3"/>
		<text transform="matrix(0.7071 -0.7071 0.7071 0.7071 111.8886 400.6578)" class="st26 st17 st27">125</text>
		
			<rect x="122.1" y="391.1" transform="matrix(0.7074 -0.7068 0.7068 0.7074 -241.8882 206.067)" class="st15" width="11.7" height="8.3"/>
		<text transform="matrix(0.7071 -0.7071 0.7071 0.7071 125.1493 400.6581)" class="st26 st17 st27">130</text>
		
			<rect x="135.4" y="391.1" transform="matrix(0.7074 -0.7068 0.7068 0.7074 -238.0087 215.4389)" class="st15" width="11.7" height="8.3"/>
		<text transform="matrix(0.7071 -0.7071 0.7071 0.7071 138.4082 400.6574)" class="st26 st17 st27">135</text>
		
			<rect x="148.6" y="391.1" transform="matrix(0.7074 -0.7068 0.7068 0.7074 -234.1322 224.8037)" class="st15" width="11.7" height="8.3"/>
		<text transform="matrix(0.7071 -0.7071 0.7071 0.7071 151.6582 400.6574)" class="st26 st17 st27">140</text>
		<line class="st24" x1="167.2" y1="383.9" x2="283.8" y2="383.9"/>
		<line class="st25" x1="172.5" y1="386.7" x2="172.5" y2="383.9"/>
		<line class="st25" x1="185.7" y1="386.7" x2="185.7" y2="383.9"/>
		<line class="st25" x1="199" y1="386.7" x2="199" y2="383.9"/>
		<line class="st25" x1="212.2" y1="386.7" x2="212.2" y2="383.9"/>
		<line class="st25" x1="225.5" y1="386.7" x2="225.5" y2="383.9"/>
		<line class="st25" x1="238.8" y1="386.7" x2="238.8" y2="383.9"/>
		<line class="st25" x1="252" y1="386.7" x2="252" y2="383.9"/>
		<line class="st25" x1="265.3" y1="386.7" x2="265.3" y2="383.9"/>
		<line class="st25" x1="278.5" y1="386.7" x2="278.5" y2="383.9"/>
		
			<rect x="164.7" y="391.1" transform="matrix(0.7074 -0.7068 0.7068 0.7074 -229.4248 236.1758)" class="st15" width="11.7" height="8.3"/>
		<text transform="matrix(0.7071 -0.7071 0.7071 0.7071 167.7487 400.6578)" class="st26 st17 st27">100</text>
		
			<rect x="178" y="391.1" transform="matrix(0.7074 -0.7068 0.7068 0.7074 -225.5454 245.5477)" class="st15" width="11.7" height="8.3"/>
		<text transform="matrix(0.7071 -0.7071 0.7071 0.7071 181.0083 400.6578)" class="st26 st17 st27">105</text>
		
			<rect x="191.7" y="390.9" transform="matrix(0.7074 -0.7068 0.7068 0.7074 -221.4853 254.9883)" class="st15" width="11.2" height="8.3"/>
		<text transform="matrix(0.7071 -0.7071 0.7071 0.7071 194.6253 400.2908)" class="st28"><tspan x="0" y="0" class="st26 st17 st27 st29">1</tspan><tspan x="7.3" y="0" class="st26 st17 st27">1</tspan></text>
		
			<rect x="204.9" y="390.9" transform="matrix(0.7074 -0.7068 0.7068 0.7074 -217.6059 264.3602)" class="st15" width="11.2" height="8.3"/>
		<text transform="matrix(0.7071 -0.7071 0.7071 0.7071 207.886 400.2911)" class="st28"><tspan x="0" y="0" class="st26 st17 st27 st29">1</tspan><tspan x="7.3" y="0" class="st26 st17 st27">1</tspan></text>
		
			<rect x="217.8" y="391.1" transform="matrix(0.7074 -0.7068 0.7068 0.7074 -213.91 273.6563)" class="st15" width="11.7" height="8.3"/>
		<text transform="matrix(0.7071 -0.7071 0.7071 0.7071 220.7789 400.6578)" class="st26 st17 st27">120</text>
		
			<rect x="231" y="391.1" transform="matrix(0.7074 -0.7068 0.7068 0.7074 -210.0306 283.0282)" class="st15" width="11.7" height="8.3"/>
		<text transform="matrix(0.7071 -0.7071 0.7071 0.7071 234.0386 400.6578)" class="st26 st17 st27">125</text>
		
			<rect x="244.3" y="391.1" transform="matrix(0.7074 -0.7068 0.7068 0.7074 -206.1541 292.3931)" class="st15" width="11.7" height="8.3"/>
		<text transform="matrix(0.7071 -0.7071 0.7071 0.7071 247.2885 400.6578)" class="st26 st17 st27">130</text>
		
			<rect x="257.5" y="391.1" transform="matrix(0.7074 -0.7068 0.7068 0.7074 -202.2747 301.765)" class="st15" width="11.7" height="8.3"/>
		<text transform="matrix(0.7071 -0.7071 0.7071 0.7071 260.5492 400.6581)" class="st26 st17 st27">135</text>
		
			<rect x="270.8" y="391.1" transform="matrix(0.7074 -0.7068 0.7068 0.7074 -198.3952 311.1369)" class="st15" width="11.7" height="8.3"/>
		<text transform="matrix(0.7071 -0.7071 0.7071 0.7071 273.8082 400.6574)" class="st26 st17 st27">140</text>
		<line class="st24" x1="289.3" y1="383.9" x2="406" y2="383.9"/>
		<line class="st25" x1="294.6" y1="386.7" x2="294.6" y2="383.9"/>
		<line class="st25" x1="307.9" y1="386.7" x2="307.9" y2="383.9"/>
		<line class="st25" x1="321.1" y1="386.7" x2="321.1" y2="383.9"/>
		<line class="st25" x1="334.4" y1="386.7" x2="334.4" y2="383.9"/>
		<line class="st25" x1="347.6" y1="386.7" x2="347.6" y2="383.9"/>
		<line class="st25" x1="360.9" y1="386.7" x2="360.9" y2="383.9"/>
		<line class="st25" x1="374.1" y1="386.7" x2="374.1" y2="383.9"/>
		<line class="st25" x1="387.4" y1="386.7" x2="387.4" y2="383.9"/>
		<line class="st25" x1="400.7" y1="386.7" x2="400.7" y2="383.9"/>
		
			<rect x="286.9" y="391.1" transform="matrix(0.7074 -0.7068 0.7068 0.7074 -193.6908 322.5019)" class="st15" width="11.7" height="8.3"/>
		<text transform="matrix(0.7071 -0.7071 0.7071 0.7071 289.8886 400.6581)" class="st26 st17 st27">100</text>
		
			<rect x="300.1" y="391.1" transform="matrix(0.7074 -0.7068 0.7068 0.7074 -189.8113 331.8738)" class="st15" width="11.7" height="8.3"/>
		<text transform="matrix(0.7071 -0.7071 0.7071 0.7071 303.1486 400.6578)" class="st26 st17 st27">105</text>
		
			<rect x="313.8" y="390.9" transform="matrix(0.7074 -0.7068 0.7068 0.7074 -185.7483 341.3214)" class="st15" width="11.2" height="8.3"/>
		<text transform="matrix(0.7071 -0.7071 0.7071 0.7071 316.7752 400.2908)" class="st28"><tspan x="0" y="0" class="st26 st17 st27 st29">1</tspan><tspan x="7.3" y="0" class="st26 st17 st27">1</tspan></text>
		
			<rect x="327.1" y="390.9" transform="matrix(0.7074 -0.7068 0.7068 0.7074 -181.8718 350.6862)" class="st15" width="11.2" height="8.3"/>
		<text transform="matrix(0.7071 -0.7071 0.7071 0.7071 330.0252 400.2908)" class="st28"><tspan x="0" y="0" class="st26 st17 st27 st29">1</tspan><tspan x="7.3" y="0" class="st26 st17 st27">1</tspan></text>
		
			<rect x="339.9" y="391.1" transform="matrix(0.7074 -0.7068 0.7068 0.7074 -178.1759 359.9824)" class="st15" width="11.7" height="8.3"/>
		<text transform="matrix(0.7071 -0.7071 0.7071 0.7071 342.9189 400.6581)" class="st26 st17 st27">120</text>
		
			<rect x="353.2" y="391.1" transform="matrix(0.7074 -0.7068 0.7068 0.7074 -174.2965 369.3543)" class="st15" width="11.7" height="8.3"/>
		<text transform="matrix(0.7071 -0.7071 0.7071 0.7071 356.1788 400.6578)" class="st26 st17 st27">125</text>
		
			<rect x="366.4" y="391.1" transform="matrix(0.7074 -0.7068 0.7068 0.7074 -170.4171 378.7262)" class="st15" width="11.7" height="8.3"/>
		<text transform="matrix(0.7071 -0.7071 0.7071 0.7071 369.4385 400.6578)" class="st26 st17 st27">130</text>
		
			<rect x="379.7" y="391.1" transform="matrix(0.7074 -0.7068 0.7068 0.7074 -166.5406 388.0911)" class="st15" width="11.7" height="8.3"/>
		<text transform="matrix(0.7071 -0.7071 0.7071 0.7071 382.6884 400.6578)" class="st26 st17 st27">135</text>
		
			<rect x="392.9" y="391.1" transform="matrix(0.7074 -0.7068 0.7068 0.7074 -162.6611 397.463)" class="st15" width="11.7" height="8.3"/>
		<text transform="matrix(0.7071 -0.7071 0.7071 0.7071 395.9491 400.6581)" class="st26 st17 st27">140</text>
		<line class="st24" x1="411.5" y1="383.9" x2="528.1" y2="383.9"/>
		<line class="st25" x1="416.8" y1="386.7" x2="416.8" y2="383.9"/>
		<line class="st25" x1="430" y1="386.7" x2="430" y2="383.9"/>
		<line class="st25" x1="443.3" y1="386.7" x2="443.3" y2="383.9"/>
		<line class="st25" x1="456.5" y1="386.7" x2="456.5" y2="383.9"/>
		<line class="st25" x1="469.8" y1="386.7" x2="469.8" y2="383.9"/>
		<line class="st25" x1="483" y1="386.7" x2="483" y2="383.9"/>
		<line class="st25" x1="496.3" y1="386.7" x2="496.3" y2="383.9"/>
		<line class="st25" x1="509.5" y1="386.7" x2="509.5" y2="383.9"/>
		<line class="st25" x1="522.8" y1="386.7" x2="522.8" y2="383.9"/>
		
			<rect x="409" y="391.1" transform="matrix(0.7074 -0.7068 0.7068 0.7074 -157.9538 408.8351)" class="st15" width="11.7" height="8.3"/>
		<text transform="matrix(0.7071 -0.7071 0.7071 0.7071 412.0385 400.6581)" class="st26 st17 st27">100</text>
		
			<rect x="422.3" y="391.1" transform="matrix(0.7074 -0.7068 0.7068 0.7074 -154.0773 418.1999)" class="st15" width="11.7" height="8.3"/>
		<text transform="matrix(0.7071 -0.7071 0.7071 0.7071 425.2885 400.6581)" class="st26 st17 st27">105</text>
		
			<rect x="436" y="390.9" transform="matrix(0.7074 -0.7068 0.7068 0.7074 -150.0143 427.6474)" class="st15" width="11.2" height="8.3"/>
		<text transform="matrix(0.7071 -0.7071 0.7071 0.7071 438.9162 400.2915)" class="st28"><tspan x="0" y="0" class="st26 st17 st27 st29">1</tspan><tspan x="7.3" y="0" class="st26 st17 st27">1</tspan></text>
		
			<rect x="449.2" y="390.9" transform="matrix(0.7074 -0.7068 0.7068 0.7074 -146.1349 437.0193)" class="st15" width="11.2" height="8.3"/>
		<text transform="matrix(0.7071 -0.7071 0.7071 0.7071 452.1762 400.2911)" class="st28"><tspan x="0" y="0" class="st26 st17 st27 st29">1</tspan><tspan x="7.3" y="0" class="st26 st17 st27">1</tspan></text>
		
			<rect x="462" y="391.1" transform="matrix(0.7074 -0.7068 0.7068 0.7074 -142.4389 446.3156)" class="st15" width="11.7" height="8.3"/>
		<text transform="matrix(0.7071 -0.7071 0.7071 0.7071 465.0688 400.6581)" class="st26 st17 st27">120</text>
		
			<rect x="475.3" y="391.1" transform="matrix(0.7074 -0.7068 0.7068 0.7074 -138.5625 455.6804)" class="st15" width="11.7" height="8.3"/>
		<text transform="matrix(0.7071 -0.7071 0.7071 0.7071 478.3184 400.6585)" class="st26 st17 st27">125</text>
		
			<rect x="488.6" y="391.1" transform="matrix(0.7074 -0.7068 0.7068 0.7074 -134.683 465.0523)" class="st15" width="11.7" height="8.3"/>
		<text transform="matrix(0.7071 -0.7071 0.7071 0.7071 491.5787 400.6578)" class="st26 st17 st27">130</text>
		
			<rect x="501.8" y="391.1" transform="matrix(0.7074 -0.7068 0.7068 0.7074 -130.8036 474.4242)" class="st15" width="11.7" height="8.3"/>
		<text transform="matrix(0.7071 -0.7071 0.7071 0.7071 504.8391 400.6571)" class="st26 st17 st27">135</text>
		
			<rect x="515.1" y="391.1" transform="matrix(0.7074 -0.7068 0.7068 0.7074 -126.9242 483.7961)" class="st15" width="11.7" height="8.3"/>
		<text transform="matrix(0.7071 -0.7071 0.7071 0.7071 518.0987 400.6585)" class="st26 st17 st27">140</text>
		<line class="st24" x1="533.6" y1="383.9" x2="650.3" y2="383.9"/>
		<line class="st25" x1="538.9" y1="386.7" x2="538.9" y2="383.9"/>
		<line class="st25" x1="552.2" y1="386.7" x2="552.2" y2="383.9"/>
		<line class="st25" x1="565.4" y1="386.7" x2="565.4" y2="383.9"/>
		<line class="st25" x1="578.7" y1="386.7" x2="578.7" y2="383.9"/>
		<line class="st25" x1="591.9" y1="386.7" x2="591.9" y2="383.9"/>
		<line class="st25" x1="605.2" y1="386.7" x2="605.2" y2="383.9"/>
		<line class="st25" x1="618.4" y1="386.7" x2="618.4" y2="383.9"/>
		<line class="st25" x1="631.7" y1="386.7" x2="631.7" y2="383.9"/>
		<line class="st25" x1="645" y1="386.7" x2="645" y2="383.9"/>
		
			<rect x="531.2" y="391.1" transform="matrix(0.7074 -0.7068 0.7068 0.7074 -122.2197 495.1612)" class="st15" width="11.7" height="8.3"/>
		<text transform="matrix(0.7071 -0.7071 0.7071 0.7071 534.1785 400.6571)" class="st26 st17 st27">100</text>
		
			<rect x="544.4" y="391.1" transform="matrix(0.7074 -0.7068 0.7068 0.7074 -118.3402 504.5331)" class="st15" width="11.7" height="8.3"/>
		<text transform="matrix(0.7071 -0.7071 0.7071 0.7071 547.4381 400.6585)" class="st26 st17 st27">105</text>
		
			<rect x="558.1" y="390.9" transform="matrix(0.7074 -0.7068 0.7068 0.7074 -114.2774 513.9806)" class="st15" width="11.2" height="8.3"/>
		<text transform="matrix(0.7071 -0.7071 0.7071 0.7071 561.0665 400.2911)" class="st28"><tspan x="0" y="0" class="st26 st17 st27 st29">1</tspan><tspan x="7.3" y="0" class="st26 st17 st27">1</tspan></text>
		
			<rect x="571.4" y="390.9" transform="matrix(0.7074 -0.7068 0.7068 0.7074 -110.4009 523.3454)" class="st15" width="11.2" height="8.3"/>
		<text transform="matrix(0.7071 -0.7071 0.7071 0.7071 574.3165 400.2911)" class="st28"><tspan x="0" y="0" class="st26 st17 st27 st29">1</tspan><tspan x="7.3" y="0" class="st26 st17 st27">1</tspan></text>
		
			<rect x="584.2" y="391.1" transform="matrix(0.7074 -0.7068 0.7068 0.7074 -106.7049 532.6417)" class="st15" width="11.7" height="8.3"/>
		<text transform="matrix(0.7071 -0.7071 0.7071 0.7071 587.2087 400.6571)" class="st26 st17 st27">120</text>
		
			<rect x="597.4" y="391.1" transform="matrix(0.7074 -0.7068 0.7068 0.7074 -102.8255 542.0135)" class="st15" width="11.7" height="8.3"/>
		<text transform="matrix(0.7071 -0.7071 0.7071 0.7071 600.4683 400.6585)" class="st26 st17 st27">125</text>
		
			<rect x="610.7" y="391.1" transform="matrix(0.7074 -0.7068 0.7068 0.7074 -98.946 551.3855)" class="st15" width="11.7" height="8.3"/>
		<text transform="matrix(0.7071 -0.7071 0.7071 0.7071 613.7287 400.6578)" class="st26 st17 st27">130</text>
		
			<rect x="624" y="391.1" transform="matrix(0.7074 -0.7068 0.7068 0.7074 -95.0695 560.7503)" class="st15" width="11.7" height="8.3"/>
		<text transform="matrix(0.7071 -0.7071 0.7071 0.7071 626.9786 400.6578)" class="st26 st17 st27">135</text>
		
			<rect x="637.2" y="391.1" transform="matrix(0.7074 -0.7068 0.7068 0.7074 -91.1901 570.1223)" class="st15" width="11.7" height="8.3"/>
		<text transform="matrix(0.7071 -0.7071 0.7071 0.7071 640.239 400.6571)" class="st26 st17 st27">140</text>
		<line class="st24" x1="45" y1="383.9" x2="45" y2="22.4"/>
		<rect x="35.2" y="363.1" class="st15" width="4.9" height="10.4"/>
		<text transform="matrix(1 0 0 1 35.1958 370.6499)" class="st26 st17 st18">0</text>
		<rect x="35.2" y="308.3" class="st15" width="4.9" height="10.4"/>
		<text transform="matrix(1 0 0 1 35.1958 315.8701)" class="st26 st17 st18">5</text>
		<rect x="30.3" y="253.5" class="st15" width="9.8" height="10.4"/>
		<text transform="matrix(1 0 0 1 30.3018 261.0898)" class="st26 st17 st18">10</text>
		<rect x="30.3" y="198.8" class="st15" width="9.8" height="10.4"/>
		<text transform="matrix(1 0 0 1 30.3018 206.3101)" class="st26 st17 st18">15</text>
		<rect x="30.3" y="144" class="st15" width="9.8" height="10.4"/>
		<text transform="matrix(1 0 0 1 30.3018 151.54)" class="st26 st17 st18">20</text>
		<rect x="30.3" y="89.2" class="st15" width="9.8" height="10.4"/>
		<text transform="matrix(1 0 0 1 30.3018 96.7598)" class="st26 st17 st18">25</text>
		<rect x="30.3" y="34.4" class="st15" width="9.8" height="10.4"/>
		<text transform="matrix(1 0 0 1 30.3018 41.98)" class="st26 st17 st18">30</text>
		<line class="st25" x1="42.3" y1="367.5" x2="45" y2="367.5"/>
		<line class="st25" x1="42.3" y1="312.7" x2="45" y2="312.7"/>
		<line class="st25" x1="42.3" y1="257.9" x2="45" y2="257.9"/>
		<line class="st25" x1="42.3" y1="203.2" x2="45" y2="203.2"/>
		<line class="st25" x1="42.3" y1="148.4" x2="45" y2="148.4"/>
		<line class="st25" x1="42.3" y1="93.6" x2="45" y2="93.6"/>
		<line class="st25" x1="42.3" y1="38.8" x2="45" y2="38.8"/>
		<rect x="319.2" y="414.8" class="st15" width="60" height="13"/>
		<text transform="matrix(1 0 0 1 319.2026 424.2002)" class="st28"><tspan x="0" y="0" class="st17 st30">Day</tspan><tspan x="19.6" y="0" class="st17 st30"> </tspan><tspan x="23.6" y="0" class="st17 st30">of</tspan><tspan x="32.7" y="0" class="st17 st30"> </tspan><tspan x="36.7" y="0" class="st17 st30">Year</tspan></text>
		<rect x="3.6" y="160.9" class="st15" width="13.5" height="84.5"/>
		<text transform="matrix(6.123234e-17 -1 1 6.123234e-17 13.0137 245.3984)" class="st28"><tspan x="0" y="0" class="st17 st30 st31">Temperatur</tspan><tspan x="78.4" y="0" class="st17 st30">e </tspan></text>
		<rect x="661.2" y="146.6" class="st0" width="53.3" height="113"/>
		<text transform="matrix(1 0 0 1 666.7 161.16)" class="st17 st30">year</text>
		<line class="st4" x1="668.4" y1="176.4" x2="682.3" y2="176.4"/>
		<line class="st6" x1="668.4" y1="193.7" x2="682.3" y2="193.7"/>
		<line class="st8" x1="668.4" y1="211" x2="682.3" y2="211"/>
		<line class="st10" x1="668.4" y1="228.3" x2="682.3" y2="228.3"/>
		<line class="st12" x1="668.4" y1="245.6" x2="682.3" y2="245.6"/>
		<rect x="689.5" y="172" class="st15" width="19.6" height="10.4"/>
		<text transform="matrix(1 0 0 1 689.46 179.5898)" class="st17 st18">2016</text>
		<rect x="689.5" y="189.3" class="st15" width="19.6" height="10.4"/>
		<text transform="matrix(1 0 0 1 689.46 196.8701)" class="st17 st18">2017</text>
		<rect x="689.5" y="206.6" class="st15" width="19.6" height="10.4"/>
		<text transform="matrix(1 0 0 1 689.46 214.1499)" class="st17 st18">2018</text>
		<rect x="689.5" y="223.9" class="st15" width="19.6" height="10.4"/>
		<text transform="matrix(1 0 0 1 689.46 231.4302)" class="st17 st18">2019</text>
		<rect x="689.5" y="241.2" class="st15" width="19.6" height="10.4"/>
		<text transform="matrix(1 0 0 1 689.46 248.71)" class="st17 st18">2020</text>
	</g>
</g>
</svg>
